<svg id="Layer_1" data-name="Layer 1" xmlns="http://www.w3.org/2000/svg" viewBox="0 0 500 500"><title>discord</title><path d="M364.86,76.74H135.14A35.23,35.23,0,0,0,100,112.06V343.83a35.22,35.22,0,0,0,35.14,35.31h194.4l-9.08-31.71,21.94,20.4L363.14,387,400,419.6V112.06A35.23,35.23,0,0,0,364.86,76.74ZM298.69,300.63s-6.18-7.37-11.32-13.89c22.46-6.34,31-20.4,31-20.4a98.16,98.16,0,0,1-19.71,10.12,112.86,112.86,0,0,1-24.86,7.37,120.21,120.21,0,0,1-44.4-.17,144.6,144.6,0,0,1-25.2-7.37,102.07,102.07,0,0,1-12.52-5.83c-.51-.35-1-.52-1.54-.86a2.35,2.35,0,0,1-.68-.51c-3.09-1.72-4.8-2.92-4.8-2.92s8.22,13.72,30,20.23c-5.15,6.51-11.49,14.23-11.49,14.23-37.89-1.2-52.29-26.06-52.29-26.06,0-55.2,24.69-99.94,24.69-99.94,24.69-18.52,48.17-18,48.17-18l1.72,2.06c-30.86,8.91-45.09,22.45-45.09,22.45s3.77-2,10.11-5c18.35-8.06,32.92-10.28,38.92-10.8a17,17,0,0,1,2.91-.34,144.84,144.84,0,0,1,34.63-.34,139.63,139.63,0,0,1,51.6,16.45S305,168.29,275.89,159.37l2.4-2.74s23.48-.52,48.17,18c0,0,24.68,44.74,24.68,99.94,0,0-14.57,24.86-52.45,26.06ZM219,220.57c-9.77,0-17.48,8.57-17.48,19s7.88,19,17.48,19c9.77,0,17.49-8.57,17.49-19,.17-10.46-7.72-19-17.49-19m62.57,0c-9.77,0-17.48,8.57-17.48,19s7.88,19,17.48,19c9.77,0,17.49-8.57,17.49-19s-7.72-19-17.49-19" fill="#7289da"/></svg>