<svg id="Layer_1" data-name="Layer 1" xmlns="http://www.w3.org/2000/svg" xmlns:xlink="http://www.w3.org/1999/xlink" viewBox="0 0 500 500"><defs><clipPath id="clip-path"><path d="M203.28,426.92c2.5,11.72,8.6,18.59,14.69,22.65h64.22C290,444.26,298,434.26,298,415.51V367.07s.94-12,12-15.93c0,0,6.41-4.53-.47-7,0,0-30.47-2.5-30.47,22.5v36.87s1.25,13.59-5.93,19.22V377.07s.46-14.53,8-20c0,0,5-8.9-5.93-6.56,0,0-20.94,3-21.88,27.5l-.47,46.88h-5L247.34,378c-.93-24.37-21.87-27.5-21.87-27.5-10.94-2.5-5.94,6.56-5.94,6.56,7.5,5.47,8,20,8,20v46.1c-7.19-5.16-5.94-19.69-5.94-19.69V366.61c0-25-30.47-22.5-30.47-22.5-7,2.5-.46,7-.46,7,10.93,4.06,12,15.93,12,15.93V401l.62,25.94Z" fill="none"/></clipPath></defs><title>github</title><path d="M363.91,356.61c0,21.71-50.32,39.21-112.35,39.21s-112.34-17.65-112.34-39.21c0-21.72,50.31-39.22,112.34-39.22S363.91,334.89,363.91,356.61Z" fill="#9edcf2"/><g clip-path="url(#clip-path)"><path d="M363.91,356.61c0,21.71-50.32,39.21-112.35,39.21s-112.34-17.65-112.34-39.21c0-21.72,50.31-39.22,112.34-39.22S363.91,334.89,363.91,356.61Z" fill="#7dbce7"/></g><path d="M123.28,241.14,120,252.39s-.78,4.06,3,4.84c4.06-.16,3.75-3.91,3.44-5l-3.13-11.09Z" fill="#9edcf2"/><path d="M449.69,193.79l.31-1.4c-33-6.57-66.72-6.72-87.19-5.78,3.28-12,4.38-26.1,4.38-41.57,0-22.34-8.44-40.15-21.88-53.59,2.35-7.66,5.47-24.69-3.12-46.41,0,0-15.31-4.84-50.16,18.44a175,175,0,0,0-42.65-5.16,183.61,183.61,0,0,0-47.19,6.1c-35.94-24.53-51.72-19.53-51.72-19.53-10.31,25.78-3.91,45-2,49.68-12.19,13.13-19.53,29.85-19.53,50.32,0,15.47,1.72,29.37,6.09,41.4-20.62-.78-53.12-.47-85,5.94l.31,1.41c31.88-6.41,64.69-6.57,85.16-5.78.94,2.5,2,5,3.12,7.34-20.31.62-54.84,3.28-88,12.66l.46,1.4c33.44-9.37,68.29-11.87,88.44-12.5,12.19,22.5,35.94,37.19,78.44,41.72-6.09,4.06-12.19,10.94-14.69,22.66-8.28,3.9-34.22,13.59-49.84-13.28,0,0-8.75-15.94-25.47-17.19,0,0-16.25-.31-1.09,10.15,0,0,10.78,5.16,18.28,24.38,0,0,9.84,32.81,56.87,22.19V321s-.94,12-12,15.94c0,0-6.56,4.53.47,7,0,0,30.47,2.5,30.47-22.5V284.57s-1.25-14.68,5.94-19.68v60.62s-.47,14.53-8,20c0,0-5,8.91,5.93,6.56,0,0,20.94-3,21.88-27.5l.47-61.4h5l.47,61.4c.93,24.38,21.87,27.5,21.87,27.5,10.94,2.5,5.94-6.56,5.94-6.56-7.5-5.47-8-20-8-20V265.36c7.19,5.62,5.94,19.21,5.94,19.21v36.88c0,25,30.47,22.5,30.47,22.5,7-2.5.47-7,.47-7-10.94-4.06-12-15.94-12-15.94V272.54c0-18.9-8-28.9-15.78-34.06,45.32-4.53,67-19.06,77-41.87,19.85.46,55.63,3,89.69,12.65l.47-1.4c-33.91-9.54-69.37-12-89.53-12.66.94-2.34,1.72-4.69,2.5-7.19,20.94-.78,54.84-.78,88,5.78Z" fill="#010101"/><path d="M322.81,144c9.69,8.91,15.47,19.53,15.47,30.94,0,53.75-40,55.15-89.37,55.15s-89.38-7.5-89.38-55.15c0-11.41,5.63-22,15.31-30.78,16.1-14.69,43.29-6.88,74.07-6.88s57.81-8,73.9,6.72Z" fill="#f5ccb3"/><path d="M219.22,177.7c0,14.84-8.28,26.72-18.59,26.72s-18.6-12-18.6-26.72S190.31,151,200.63,151C210.94,150.82,219.22,162.86,219.22,177.7Z" fill="#fff"/><path d="M213.28,178c0,9.85-5.62,17.81-12.34,17.81-6.88,0-12.35-8-12.35-17.81s5.63-17.81,12.35-17.81S213.28,168.17,213.28,178Z" fill="#af5c51"/><path d="M319.06,177.7c0,14.84-8.28,26.72-18.59,26.72s-18.59-12-18.59-26.72S290.16,151,300.47,151C310.63,150.82,319.06,162.86,319.06,177.7Z" fill="#fff"/><path d="M313,178c0,9.85-5.63,17.81-12.34,17.81-6.88,0-12.35-8-12.35-17.81s5.63-17.81,12.35-17.81C307.5,160.2,313,168.17,313,178Zm-59.06,23.44a4.69,4.69,0,0,1-9.38,0,4.6,4.6,0,0,1,4.69-4.69A4.7,4.7,0,0,1,253.91,201.45Zm-15.47,11.72a1.48,1.48,0,1,1,2.81-.94,8.41,8.41,0,0,0,8,5.63,8.63,8.63,0,0,0,8-5.63,1.48,1.48,0,1,1,2.81.94,11.42,11.42,0,0,1-21.56,0Z" fill="#af5c51"/><path d="M135.16,234.42c0,1.25-1.41,2.19-3.28,2.19-1.72,0-3.29-.94-3.29-2.19s1.41-2.19,3.29-2.19S135.16,233.17,135.16,234.42Zm9.06,5c0,1.25-1.41,2.19-3.28,2.19-1.72,0-3.28-.94-3.28-2.19s1.4-2.19,3.28-2.19S144.22,238.17,144.22,239.42Zm5.47,6.56c0,1.25-1.41,2.19-3.28,2.19-1.72,0-3.28-.94-3.28-2.19s1.4-2.19,3.28-2.19C148.28,243.64,149.69,244.73,149.69,246Zm5,7.5c0,1.25-1.41,2.19-3.28,2.19-1.72,0-3.28-.94-3.28-2.19s1.4-2.19,3.28-2.19C153.28,251.14,154.69,252.23,154.69,253.48Zm5.47,6.88c0,1.25-1.41,2.18-3.28,2.18-1.72,0-3.29-.93-3.29-2.18s1.41-2.19,3.29-2.19S160.16,259.11,160.16,260.36Zm7.5,6.09c0,1.25-1.41,2.19-3.28,2.19-1.72,0-3.29-.94-3.29-2.19s1.41-2.19,3.29-2.19S167.66,265.2,167.66,266.45Zm10.47,3.91c0,1.25-1.41,2.18-3.29,2.18-1.71,0-3.28-.93-3.28-2.18s1.41-2.19,3.28-2.19S178.13,269.11,178.13,270.36Zm10.46,0c0,1.25-1.4,2.18-3.28,2.18-1.72,0-3.28-.93-3.28-2.18s1.41-2.19,3.28-2.19S188.59,269.11,188.59,270.36Zm10.63-1.72c0,1.25-1.41,2.18-3.28,2.18-1.72,0-3.28-.93-3.28-2.18s1.4-2.19,3.28-2.19C197.66,266.45,199.22,267.39,199.22,268.64Z" fill="#c4e5d9"/></svg>