<svg id="Layer_1" data-name="Layer 1" xmlns="http://www.w3.org/2000/svg" xmlns:xlink="http://www.w3.org/1999/xlink" viewBox="0 0 500 500"><defs><radialGradient id="radial-gradient" cx="-1101.46" cy="-625.11" r="9.41" gradientTransform="matrix(0, 32.25, 32.85, 0, 20675.6, 35708.39)" gradientUnits="userSpaceOnUse"><stop offset="0" stop-color="#fff"/><stop offset="0.23" stop-color="#fff"/><stop offset="0.33" stop-color="#eaeaea"/><stop offset="0.68" stop-color="#c9c9c9"/><stop offset="0.7" stop-color="#c9c9c9"/><stop offset="0.89" stop-color="#919191"/><stop offset="1" stop-color="#636363"/></radialGradient><radialGradient id="radial-gradient-2" cx="-950.39" cy="-506.67" r="11.37" gradientTransform="matrix(0, 22.59, 19.74, 0, 10111.16, 21654.78)" gradientUnits="userSpaceOnUse"><stop offset="0" stop-color="#c8c8c8"/><stop offset="1" stop-color="#5a5a5a"/></radialGradient></defs><title>wikipedia</title><path d="M162.22,188.5c-2.4-.12-6.48-.2-7-4.55-.26-2.19,8.71-10.25,6.46-13.46-.56-.8-2.19-1.66-6-2.76-4.59-1-12.82-.35-27,4.77-.64.23.19-.08-.32.11l-.64.21c.44-.15-.64.27-2.54,1a20.58,20.58,0,0,1-2.54.85c-3.12-11.22,5.28-31.93,12.4-32.64,2.89-.28,6.12,3.75,10.27,1.49,7.48-4.08,8.25-10.32,7.21-18-.79-5.86-6.84-.32-10.91,1.27-4.42,1.73-4.52,2.77-5.73,1.59-3.68-3.57-1.64-11.67,12.83-27.66a34,34,0,0,0,7.63-16.32c.3-3.13-9.79,5.65-10.81,3.5-.71-1.49,8.09-10.06,12.61-12.4,2.09-1.08,2.11,1.23,3.6,1.06,1.95-.22,14.16-11.36,13.35-13.14-.52-1.17-9.33,3.92-9.74,2.65-.23-.69,9.11-5.4,9.11-5.4a1.11,1.11,0,0,1,0-.43c-3.67,1.32-52,16.75-90,73.65-60.8,91.06-35.66,213.9,56.06,274.26S356,443.5,416.77,352.45A196.55,196.55,0,0,0,446,203.66c-10.11-49.69-42.31-94.3-54.26-100,2.39,2.34,4,3.81,3.28,4.66-.39.5-3.31,1.06-6-1.9s-15.53-12.89-17.07-15.16-1.25-3-.42-3.18a5.49,5.49,0,0,1,2.76.64c.56.3-12.49-10.13-13.36-10.7s-3.25-1.54-3.71-1.38c-.8.28,2.08,2.27,1.59,2.76s-1.79.19-2.86-.75c-.54-.47-14.8-10.85-23.53-14.2-5.16.78-8.46,1.27-9,2.33-.79,1.52,11.63,6.51,12.29,7.74s-2,3.16-4.45,3.5c-7.81,1-10.83-2.74-11.77-4.88-3.27-7.53-17.37-4.76-29.78,3.29-5.35,3.47-26.29,3.43-26.49.74-.38-5.18,1.55-8.59-11.13-6.46-8.9,1.49-11.29,4.65-10.49,5.29,1.49,1.2,7.57,3.34,8.06,5.3.33,1.34-7.64,8.82-29.57,7.32-2.18,11.64-2.09,14.22.11,17.8s5.71,5,7.73,4.45c4.66-1.18,9.26-6.71,12.72-6.78,6.05-.13,10.15,5.69,9.85,13.56,0,0,.08,0,.11,0,0,.28-.08.49-.11.75,0,.1,0,.21,0,.31-1,8.7-11,5.46-17.69,3.82-8.57-2.1-8.63,26.6-.54,32.11-15.82-1.68-35.86,5.85-46.41,10.49-8.71,3.83,8.23,11.88,5.3,14.63-3.45,3.21-10.61,6.28-16.11,7.63a70.16,70.16,0,0,1-12.82,1.15Z" fill="#fff"/><path d="M162.22,188.5c-2.4-.12-6.48-.2-7-4.55-.26-2.19,8.71-10.25,6.46-13.46-.56-.8-2.19-1.66-6-2.76-4.59-1-12.81-.35-27,4.77-.64.23.19-.08-.32.11l-.64.21c.44-.15-.63.27-2.54,1a18.72,18.72,0,0,1-2.54.85c-3.12-11.22,5.29-31.93,12.4-32.64,2.89-.28,6.13,3.75,10.28,1.49,7.47-4.08,8.24-10.32,7.2-18-.78-5.86-6.84-.32-10.91,1.27-4.42,1.73-4.51,2.77-5.72,1.59-3.69-3.57-1.65-11.67,12.82-27.66a33.86,33.86,0,0,0,7.63-16.32c.31-3.13-9.79,5.65-10.81,3.5-.71-1.5,8.09-10.06,12.61-12.4,2.1-1.08,2.11,1.23,3.6,1.06,2-.22,14.16-11.36,13.36-13.14-.53-1.17-9.34,3.92-9.75,2.65-.22-.69,9.11-5.4,9.11-5.4a1.11,1.11,0,0,1,0-.43c-3.67,1.32-52,16.75-90,73.65-60.8,91.06-35.66,213.9,56.06,274.26S356,443.51,416.77,352.45A196.55,196.55,0,0,0,446,203.66c-10.11-49.69-42.31-94.3-54.26-100,2.39,2.34,4,3.81,3.28,4.66-.39.5-3.31,1.06-6-1.9s-15.53-12.89-17.07-15.16-1.25-3-.42-3.18a5.49,5.49,0,0,1,2.76.64c.56.31-12.49-10.13-13.35-10.7s-3.26-1.54-3.71-1.38c-.8.28,2.08,2.27,1.59,2.76s-1.79.19-2.87-.75c-.53-.47-14.8-10.85-23.53-14.2-5.16.78-8.45,1.27-9,2.33-.79,1.52,11.63,6.51,12.29,7.74s-1.95,3.16-4.45,3.5c-7.8,1-10.83-2.74-11.76-4.88-3.28-7.53-17.37-4.76-29.78,3.29-5.36,3.47-26.3,3.43-26.5.74-.37-5.18,1.55-8.59-11.12-6.46-8.91,1.49-11.29,4.65-10.49,5.29,1.48,1.2,7.57,3.34,8.05,5.3.33,1.34-7.63,8.82-29.57,7.32-2.18,11.64-2.08,14.22.11,17.8s5.72,5,7.74,4.45c4.66-1.18,9.26-6.71,12.71-6.78,6.05-.13,10.15,5.69,9.86,13.56,0,0,.08,0,.1,0,0,.28-.08.49-.1.75,0,.1,0,.21,0,.31-1,8.7-11,5.46-17.7,3.82-8.56-2.1-8.62,26.6-.53,32.11-15.82-1.68-35.86,5.85-46.42,10.49-8.7,3.83,8.24,11.88,5.3,14.63-3.44,3.21-10.6,6.28-16.11,7.63a69.28,69.28,0,0,1-12.82,1.15Z" fill="url(#radial-gradient)"/><path d="M158.52,138.16c14.27.71,23-3.07,31.79-6.7-15.74-11.41,26-17,14.21-2.77,10.84.92,19.42-5.58,29.64-8.32,4.1-1.09,12.33-1,16.47-2.75-.22,10.09-10.85,6.6-17.85,4.88-8.57-2.09-8.65,26.6-.56,32.1-15.83-1.68-35.76,5.89-46.31,10.53-8.71,3.83,8.14,11.82,5.21,14.56-3.44,3.22-10.61,6.34-16.12,7.69a58.09,58.09,0,0,1-12.79,1.12c-2.3-.26-2.16-1.89,2-6.88,3-3.6,4.52-6.35-.25-10a17.85,17.85,0,0,0-8.27-3.89c-4.59-1-12.85-.36-27.06,4.76,2.47-15.3,6.24-19.82,9-23.13,2.61-3.1,6.44-1.25,11.57-.57,5.37.71,8.48-5.64,9.3-10.68Z" fill="#5a5a5a" stroke="#5a5a5a" stroke-miterlimit="60.3" stroke-width="2.13"/><path d="M174.61,60.16S165,65.28,165.26,66c.41,1.27,9.2-3.73,9.73-2.57.8,1.78-11.39,12.89-13.34,13.12-1.5.17-1.45-2.22-3.55-1.13-4.51,2.34-13.3,10.94-12.58,12.43,1,2.15,11.08-6.6,10.77-3.46a33.76,33.76,0,0,1-7.61,16.35c-14.46,16-16.5,24-12.81,27.59,1.21,1.17,5.65-1.51,5.65-1.51,4.74-13.78,16.84-18.53,19.22-31.28.55-2.92,0-3-2.86-7.91a43.23,43.23,0,0,1,4.9-3.85c2-1.18,1.87,1.23,3.84.61,4.18-1.34,7.56-5.23,10.48-9s.88-4.46,1-5.73,1,.17,0-2.11-3.47-7.39-3.47-7.39ZM323.4,67.1a39.59,39.59,0,0,0,.15,5.88c.28,1.53,4.67,3.76,7.76,5,2.51-.19,5.14-2.18,4.45-3.46S329.19,71.75,323.4,67.1ZM241.62,76a44.93,44.93,0,0,0,.83,10.18c2.88-1.36,7.56-3.57,7.23-4.9-.49-2-6.93-3.74-8.06-5.28Zm115.54.91c-.71.95-1,1.37-1.2,1.73,1.2.94,2.41,1.2,2.86.75S357.59,77.63,357.16,76.9ZM371.56,88c-.83.14-1.16,1,.37,3.24,2.13-2.4.35-.34,2.34-2.57a5.29,5.29,0,0,0-2.71-.67Zm20.2,15.6c-2.82,2.79-.42.47-2.79,2.79,2.73,3,5.64,2.38,6,1.88.67-.85-.85-2.34-3.24-4.67Zm-151,.45c-3.45.07-8.16,5.68-12.81,6.86-4,1-6.05-3.09-8.75-5.73,1,6,2.5,11.76,7.92,13,5.1,1.21,10.79-6.5,15.83-6.48,2.94,0,6.12,5.29,7.61,6.93.73-8.41-3.48-14.75-9.8-14.62ZM151.4,123.1c-.45,7.94,1.37,16.27-6.11,20.35-4.15,2.26-7.43-1.79-10.32-1.51-7.11.71-15.48,21.42-12.37,32.64,4.73-1.47.25-.05,5.66-2,1.82-9.88,4.27-19.33,10.32-24.42,3.14-2.65,11.29,2.31,15-.76,4.69-3.87,9.21-16.57-2.18-24.34Zm10.32,47.41c2.31,3.2-5.85,10.42-6.48,13.42s2.51,4.3,5.65,4.29c-2.52-1.65,4.11-6.61,5.73-11.15C167.3,175.14,166.11,173.43,161.72,170.51Z" stroke="#000" stroke-miterlimit="60.3" stroke-width="2.13"/><path d="M87,283.35c-2.86.3-3.86,2.7-2.12,7a48.67,48.67,0,0,1-14.94-4.87c-1.16,3,7.09,4.75,11,6.57.22,1.46.35,3,.53,4.45a8.83,8.83,0,0,0-1.7-1.58c-1.72-1.34-3.11-2.23-4.66-2.23-.93,0-1.49-.11-2,.53-1.71,2.06-.75,4.94,1.8,7.31s6,3.52,7.52,1.91a.57.57,0,0,0,.11-.11,24.6,24.6,0,0,0,2.33,6.89c.32.32,1.87,1.56,1.8,1.27-1.88-9.31-2.5-11.54-3.07-17.81a27.19,27.19,0,0,0,3.82.85c1,5.7.28,2,3,15.48,1.29,1.32,2.13,2.24,3.39,3.6-1.64-9.4-2.94-12-3.49-18.65.94.55,1.7.52,2.54.95a2.87,2.87,0,0,0-.32-2.54c-8.64-1.71-8.4-12.41,7.21-1.27.07.05,2.54-1.06.53-2.44-5.61-3.84-10.39-5.6-13.25-5.3Zm-11.66,12a6.57,6.57,0,0,1,3.29,1.48c1.56,1.34,3.11,3.13,1.91,4.13s-3.12-.54-4.56-2-2.25-2.67-1.27-3.5C74.83,295.3,75,295.3,75.32,295.33Z" stroke="#000" stroke-linecap="round" stroke-linejoin="round" stroke-width="2.13"/><path d="M84.25,343c5.41,2.1,8,8.71,9.16,10.14l5.55,3-4.46-9.05c1.86-.2,15.55,6.63,21.41,13.14,4.75,5.28,7,10.93,3.56,14.72-.4.44-2.43.53-2.81-.77a6.73,6.73,0,0,0,1-7,22.33,22.33,0,0,0-5.12-7.87A48.21,48.21,0,0,0,99,351.55a129,129,0,0,0,8.53,16.66c-3.26-2.72-4.62-6.06-6.69-8.49l-5.68-3.18c.55.8,2.06,3.69,3,5.47a81.42,81.42,0,0,1-5.66-8.62,46.71,46.71,0,0,0-3.29-5.32,13.29,13.29,0,0,0-3.21-3c-.25-.1-1.8,0-1.74-2.08Z" stroke="#000" stroke-miterlimit="60.3" stroke-width="2.13"/><path d="M423.93,214.54c-2.33,2.24-3.05,5.07-2.27,6.26,1.94,3,4.94-.07,6.22-1.73a6.25,6.25,0,0,0,1.31-4.11c-.11-1.2-1.35-4.17-5.26-.42Zm11.73,6.26c-.21-1.09-3.59-14.07-3.65-14.25s-.09-.28-.13-.42c-.15-.52-1-.45-1.63-.56a7.17,7.17,0,0,0-1.73-.12c-.56,0-.87,0-.91-.22s.14-.56.65-.88a9,9,0,0,1,2.57-1c1.17-.29,1.81-.19,1.9.3.3,1.43.68,2.22,1.38,5L436.73,219c.27,1.06.85,4.16,1.06,5.74s-.1,2.54-.51,2.8-1.14-4.29-1.62-6.73ZM434.3,219l-5.88,6.67.67,2.64c.16.56.15,1.08.33,1.9a22.32,22.32,0,0,1,.38,3c.08,1.16-.06,1.84-.43,2-.18,0-.39-.26-.64-.84a9,9,0,0,1-.57-1.75c-.09-.43-.21-.86-.34-1.28l-1-4.31-3,2.49a8.64,8.64,0,0,0-.8.92,4.32,4.32,0,0,1-.92.92,6.18,6.18,0,0,1-2.4.56c-1.21.13-1.86,0-2-.36a.38.38,0,0,1,.07-.29A.42.42,0,0,1,418,231a32.11,32.11,0,0,0,4.15-2.28,44,44,0,0,0,4.66-3.84c1.82-1.62,3.31-3.19,4.57-4.37l2.49-2.77.4,1.21Zm-9.68-6.84c1.14-.67,2.36-1.53,3.52-1.26a3.57,3.57,0,0,1,2.3,3,7.88,7.88,0,0,1-.9,4.62,13.67,13.67,0,0,1-3.21,4.05c-3.3,2.69-5.28,1.67-6.25-.26s.29-5.93,2.27-8.06c0,0,.22-.23.55-.55a3.85,3.85,0,0,0,.54-.58.57.57,0,0,0,.09-.45.59.59,0,0,0-.28-.32c-.15-.09-.25-.17-.27-.25l0-.13a.64.64,0,0,1,.2-.16,2.71,2.71,0,0,1,.82-.29c.36-.07.56,0,.6.14a1.69,1.69,0,0,1-.1.92l.09-.44ZM259.55,84.8,262,83.63l1.83,4.79,7-3.54c3.24,12,1.94,22.78-6.87,35.84a14.57,14.57,0,0,1-2.38-3.2c9.88-16.2,9.14-18.63,7.42-29.21l-10.82,5.87,0,8.44-2.86,2.08.12-11.7,5.8-3.24m23.58-1.68,8,13.43L290.76,103,283.71,91.7a30.85,30.85,0,0,1-4.4,6.8,2.6,2.6,0,0,0-.66-.62,3.46,3.46,0,0,0-.51-.57l-1-.54a58.08,58.08,0,0,0,4.17-7.33c1.24-2.77,2.27-4.54,2.48-8.58l2.46-.11c-.22,3.41-1,5.22-1.48,7.33"/><path d="M174,59C101.19,88.68,50,159,50,242c0,109.7,89.53,198.7,199.86,198.7s199.87-89,199.87-198.7a197.17,197.17,0,0,0-53.2-134.8c-2.27,2.35-6.08,2.06-11.44-3.71-4-4.32-19.34-16.94-12.4-15.15,5.64,1.46-13.59-13.51-15-11.71s-.43.61-1.53,1.94c-10-6.45-21.6-16.48-28.39-13.54-5,2.15-4.67.74-4.11,3s3.36,7.75,7.48,9.87c-.09,0-.3.71-6.18-.19-6.91-1.06-4-8.86-12.14-8.75-4.66.07-9.81-.21-13.45,2.2-11.6,7.69-20.07,7.16-31.91,7.59-9.05.33-.07-7.07-8-8.23-3.53-.51-11.15.1-14.82,2.25-2.88,1.69-4,.11-2.24,13.62-8.57,3.82-19.6,1.19-21.73,3.1-1.81,1.62-4,17.71,2,25.81,7.6,10.26,15.11-6.9,22.28-2.71,2.16,1.26,5.32,5.16,4.45,5.83-3.81,2.94-6.33-.19-15.89,2.12-4,1-17.59,8.72-28.9,8.15.42-.62,1.19-.42,2-3.22,1.35-4.45-7.27-9.19-19.77.07-.95.71,1.85,3.9,3.19,5.91-4.93,1.29-13.11,7.39-31.72,6.58,1.12-8.16-6.63-15.61-8.58-15.43-2.75.24-5.61,3.07-8.69,4.57,3.72-6.69,4.36-8.55,6.55-11.07,6.84-7.88,10.8-11.58,13.4-21.69.26-1,1.46-.46-3.06-6.59,8.56-7.87,5.41-2.36,9-3.52S178.22,73,176.7,70c-2-3.9.32-4.5-2.7-11Z" fill="none"/><path d="M439.57,269.06c4-5.9-1.8-7-1.13-11.16,1.19-7.32,9.45-21.23,10.71-22-2.5-.59-4.83-27.59-3.72-29.41-1.66,1-.42,18.72,2.48,29.41-5.83,8.9-10.09,19.51-10.26,21.85C437.29,262.67,441.78,264.6,439.57,269.06Z" fill="#5a5a5a" stroke="#5a5a5a" stroke-miterlimit="60.3" stroke-width="2.13"/><path d="M142,84a57.15,57.15,0,0,0,4.68-4.79c-.39-.34-3,.56-3.83.89a172.45,172.45,0,0,0-12.72,13l-1.86.29a189.13,189.13,0,0,1,19.17-18.27l1.57-.28-5,4.24c.59-.16,1.52-.46,1.94-.55s2.28-.62,2.88-.35c.75.35-3.19,3.71-4.81,5.5L142,84Zm9,122a2.24,2.24,0,0,0-.86.32,1.92,1.92,0,0,0-.88,1.16,1.44,1.44,0,0,0,.22,1.14,1.73,1.73,0,0,0,1.28.73,3.83,3.83,0,0,0,.77,0,6.07,6.07,0,0,1,.64-.09c.45.05.61.41.47,1a2.72,2.72,0,0,1-1.38,1.75,12.34,12.34,0,0,1-2.45,1.06l-.16.74c3.41-.64,5.42-2.11,5.95-4.41a2.85,2.85,0,0,0-.43-2.15,2.65,2.65,0,0,0-2.07-1.28A4.07,4.07,0,0,0,151,206Zm20.59-1.14c-5.38.76-9.93,2.71-13,5.4s-5,6.66-4.54,9.81c.4,2.83,1.4,5.64,4.06,7.17a13.26,13.26,0,0,0,7.46,2.13l.11,1.74-3.49.62a7.39,7.39,0,0,1-3.4-.11,4.17,4.17,0,0,1-2.07-2l-1.9.11.53,5.2,15.37-2.16-.19-4.59c-5-.6-6-2-7.54-3.24a9.88,9.88,0,0,1-2.93-5.57,11.15,11.15,0,0,1,3.18-8.84c2.12-2,4.22-2.94,8.18-3.81,2.51-.56,7.11-.79,9.71.59,1.15.6,4.12,2.92,4.58,6.25.72,5.08-1.61,10.22-8.8,13.72l.22,4.33L194,229.14l-.64-5.5-1.57,0c-.35.7-1.37,2.13-1.8,2.78s-1,1.06-2.73,1.31l-5,.69-.06-1.82a18.42,18.42,0,0,0,8-5.15c1.79-2.14,2.48-5.9,2.11-8.56-.46-3.27-2.5-5.7-6.1-7.33s-9.4-1.48-14.62-.75Zm226.59-68.39c-1.2.15-3.83.9-4.23,2-.29.76-.71,1.84,1.9,3,.89.41,2.65-.82,4.13-.88,2.94-.13,5.28,4.93,3.89,8.71-1,2.61-4,4.68-7.09,6a7.84,7.84,0,0,1-5.28.35,5.18,5.18,0,0,1-3.56-3.34,15.33,15.33,0,0,1-1-4.22c0-1.31,1.05-1.53,1.59,1.43.62,1.48,1.75,3,3.07,3.28a8.08,8.08,0,0,0,4.86-.71,12.25,12.25,0,0,0,4.4-3.84c2.17-2.91,1.34-5.09-.11-5.55-.69-.22-2.74,1.18-4.25,1-2.76-.28-4.82-3.76-4.83-5,0-1.57,1.13-2.46,2.19-3.2,1.69-1.17,4.63-2.56,4.35,1ZM405,153.17l-.33,3.2L401,156l.59-3Zm-4.85,3.18-.29,3.21-3.58-.31.25-3.19ZM168.36,288.94l-.67.35a18.5,18.5,0,0,1,4.37,3.65c.62.91,1.32,1,2.22.11s1.1-1.53.53-2-2.73-1.15-6.45-2.15Zm17.09-.33c.43,2.08,1.91,11.09,5.44,26.05l-3.88.11L185.1,314l2.15,2.06a33.06,33.06,0,0,1,5.32-1l30.58-3.49-5.66-2.13L214,311.68,208.7,288.6l2.58-1.11-4.55-1.56-3.13,1.9-13.44,1.54-4.71-.76Zm4,1.5,15-1.68,1.32,7.17-14.65,1.7Zm-12.22,3.4-1.45,1.35-14.42,1.41,1.92.79a25.82,25.82,0,0,1,4.45-.77l7.62-.78a29.76,29.76,0,0,1-6.29,7.62,50.74,50.74,0,0,1-8,5.71l.69.3a69.22,69.22,0,0,0,9.9-5.75c.71,7.33,1.08,11.81,1.08,13.42l3.25-1.46c-.29-1.5-.77-5.38-1.38-11.76,3.13,1.14,5.17,2.1,6.16,3s1.77,1,2.32.35a1.83,1.83,0,0,0,.48-1.82c-.21-.54-2-1.14-5.36-1.77,1.55-1.2,3.15-2.45,4.84-3.74l1.76-.49-3.93-1.25a16.35,16.35,0,0,1-3.6,5.34l-2.78-.42-.11-1.36c1.46-1.79,2.86-3.61,4.23-5.47l2.41-1-3.77-1.46Zm14,4.48,14.71-1.7,1.54,7.33-14.92,1.67Zm1.49,8,15-1.74,1.72,8.28-15,1.75Zm142-67.49a4.32,4.32,0,0,1,2.14-.16c.66.14,1.06.42,1.19.84q.48,1.56-2.61,3.75t-10.56,4.49q-7.51,2.33-11.27,2.26c-2.51,0-3.93-.58-4.25-1.62a1.39,1.39,0,0,1,.48-1.34,4.19,4.19,0,0,1,1.91-1.11,5,5,0,0,1,2.25-.21A13,13,0,0,1,317,246.6c2,1,4.46,1,7.55.05s5.13-2.38,6.2-4.3a12.41,12.41,0,0,1,1.81-2.73,4.91,4.91,0,0,1,2.07-1.13Zm3.34,9.87c-.41-1.32-2.19-.73-4.84-.17l-.21-.64L348.89,242l.2.65c-2.83,1.37-5.12,2.62-4.68,4l4.23,18.83c.2.53,2.15.15,5-.54l.2.65-15.65,5.92-.2-.65c3.19-1.58,5.11-2.73,4.53-4.54l-3.19-15-19.74,24.6a19.75,19.75,0,0,0,5.52-.47l.2.66-17.54,5.32-.2-.65c3.69-1.75,5.57-2.68,5.39-3.63l-4.17-19c-.13-1.1-3.38-.94-6.08-.27l-.2-.65,18.64-5.85.2.65c-2,.95-6.92,2.72-6.41,4.41l3.52,15.94L338,248.36Zm99.48,41.36c-.78.5-4.28,7.71-6.32,11.88L428,305.11l.2-8.27c-1.35,2.49-3.68,3-4,2.66-.49-.54.09-3.27,1.42-5,1-1.34,3.23-3.74,4.7-3.9,2.31-.27.36,6.19.6,9.17a81.6,81.6,0,0,1,6.9-12.66l.53-6.53c-.1-1.23-.8-1.8-2.13-1.16a17.15,17.15,0,0,0-4.43,3.89c-2.19,2.43-5.42,6-6.61,9.38l-3.41,3.18c.52-6.11,9.67-15.66,15.51-20.57,1.32-1.1,2.66-.68,3.05.88s-.27,3.52-.21,7.2c2-1.91,2.41-1.9,2.1.53s-2.28,6.19-3.92,8.67c-1.27,1.92-1.21-.26-.82-2.84Zm-10.4,4.65c-.9,1.1-1.35,1.62-1.26,2.64.07.74.71.25,1.5-.46A3.3,3.3,0,0,0,428.6,294c-.05-1.26-.91-.34-1.52.41Zm12.68-8c-.46,1-.66,2.27-.3,2.49s.67-.71,1-1.59c.25-.57.77-2,.43-2.38s-.88.89-1.17,1.48ZM323.12,155.83a.51.51,0,0,1-.08.42.61.61,0,0,1-.35.3,7,7,0,0,0-2.76,1.72,8.28,8.28,0,0,0-1.62,3.35l-5.75,23c0,.21-.23.37-.61.49a1,1,0,0,1-.78-.06L301,177.17l-5.09,12.61a.93.93,0,0,1-.61.48.85.85,0,0,1-.8,0L276.1,174.59a7.61,7.61,0,0,0-3.24-1.77A9.12,9.12,0,0,0,269,173a.61.61,0,0,1-.42,0,.44.44,0,0,1-.27-.28c-.1-.31,0-.51.25-.59,1.11-.34,2.28-.66,3.52-1s2.21-.57,3.2-.87,2.19-.71,3.55-1.2,2.52-.87,3.79-1.27c.27-.08.45,0,.55.35s.06.5-.1.55a6.93,6.93,0,0,0-2.45,1.38,1.51,1.51,0,0,0-.56,1.58,2.1,2.1,0,0,0,.71.89l15.12,12.66,3.54-9.29-7.81-6.09a11,11,0,0,0-3.23-2,6.64,6.64,0,0,0-3.08.14.5.5,0,0,1-.38,0,.45.45,0,0,1-.26-.28c-.1-.32,0-.51.2-.58,1.12-.34,2.14-.62,3.09-.83s1.88-.46,2.88-.77,2-.66,3.13-1.07,2.24-.79,3.35-1.13c.26-.09.45,0,.54.35s.06.5-.1.55c-2.18.78-3.16,1.55-2.94,2.3a3.54,3.54,0,0,0,1.25,1.34l5.13,3.87,2.18-5.64a3,3,0,0,0,.25-1.85q-.47-1.56-3.83-.64-.3.09-.45-.39a.46.46,0,0,1,.05-.36.5.5,0,0,1,.25-.25c1-.29,2-.55,3-.79s2.05-.52,2.76-.74c.52-.15,1.26-.41,2.24-.77q1.84-.69,3.12-1.08c.19-.06.34,0,.42.31a.51.51,0,0,1-.38.71,8.47,8.47,0,0,0-2.89,1.68,11.16,11.16,0,0,0-2.13,3.59L302.82,173l9.19,7L316,162.2a3.17,3.17,0,0,0,0-1.67q-.51-1.65-3.87-.74c-.2.06-.35-.07-.44-.38a.42.42,0,0,1,.3-.61q1.22-.37,2.91-.78t2.61-.69c.74-.22,1.57-.52,2.51-.88s1.86-.68,2.65-.92c.22-.08.37,0,.46.3ZM359,346.75c-.05-9.13-.19-9.5-.51-16-10.68,4.1-27.79,11-30.49,11.56s-6.35.24-5.76-1.84c.48-1.71,3.88-5.29,6.93-6.41-1,1.29-1.67,2.45,0,2.56,2.15.15,11.08-3.59,15.43-5s13.32-6.33,16-5.26,2.13,10,2.13,16.43c0,.92.27,1.7-.16,2.35-.78,1.21-2.31,1.34-3.55,1.63ZM209.87,379.42c.67.8,3.38.9,4.78,1.38s8.44.76,10.63.61a15.35,15.35,0,0,0,6.64-2.18,3.14,3.14,0,0,0,1.68-2.66c-.15-2.26-6.28-4.17-11.14-5.2-4.44-.95-12.84,0-19.05.21-7.68.3-13.43.63-20.23.69-.82,0-1.89-.75-1.89-1.51,0-1.14,1.63-1.59,1.83-3.06,0-.34.1-.66-.11-.74a7.77,7.77,0,0,0-1.8,0,8.58,8.58,0,0,1-2.16.35,6,6,0,0,1-2.33-.3c-.63-.27-2.53-1.34.12-1.78.94-.16,5.66-.85,7.56.75s-.18,3.68-.18,3.68,6.06,0,9.17-.09c8.17-.25,27-1.89,27-1.89a17.78,17.78,0,0,0,5-1.44c.73-.44,1.26-1,1-1.4-.91-1.84-2.09-1.76-4.57-2.21,3.68-.78,7.59.13,7.8,2.31.24,2.56-2.65,4-5.88,5.25a33.68,33.68,0,0,1,9.84,3.16c2.09,1.23,3.47,2.21,3.58,3.72s-.69,2.88-2.64,4.13c-2.22,1.4-5.18,2.43-10.18,2.64-4.13.18-11.09-.89-13.58-2A26.49,26.49,0,0,1,200,385.05c-3.65.26-8.9-.34-10.62-1.22-2.19-1.13-3.54-1.91-3.64-3.32a2.3,2.3,0,0,1,1.93-2.67,21.65,21.65,0,0,1,6.27-.54c3.79.25,8.08,1.91,5.62,4-.56.48-1.54.35-2.82,0,2.79-2.93-8.22-2.46-8.12-1.11,0,.81.8,1.45,2.23,1.94a36.77,36.77,0,0,0,8.75.69,25.81,25.81,0,0,0,7.15-1.79c1.35-.66,2.51-.72,3.12-1.59ZM180.78,366c0-.25-1-.29-1.59-.28s-1.55.13-1.54.33.93.45,1.49.45S180.78,366.22,180.78,366ZM355.53,105.51c-6.22-13.28-8.09-16.6.15-17.94-2.44-1.27-3.12-2.35-4.71-1.92-3.63,1-8.79-2.87-11.13-3.84a32.82,32.82,0,0,1,7.23-1.88c.32,0,3.49,1.23,3.88,1.17-.59-1.32-6.43-5-7.36-4.78-5,1.17-12.42,3.28-15.66,4.13,1.06,2.26,12,3.59,17.68,6.55C345.67,88.91,348.25,101.75,355.53,105.51ZM82.9,204.7l-1.58,3.76a12.16,12.16,0,0,1-.9,6.7l4.92-.08c.08-1.84,2-4.77-1.87-6.59L84.74,205l4.59-.11A24.15,24.15,0,0,0,86.45,215l1.61,0c-1.77,5.05-2.43,7.77-2.89,14.73-4.35-4.09-12.62-4.31-13.64-3.76.19-2.7,2.57-7.25,3-7.95l-.93-.13L74.83,215l4.34.21c.66-1.24,1.61-2.59,1.12-6.55-2-.16-3.56-.33-4.18,0-1.1.65-2,1.86-2.32,5.31-.31-3.33-.27-5.8.68-7.26a10.12,10.12,0,0,1,1.92-1.83l6.51-.2Zm1.85,15.1c-1.28-2-7.9-1.9-8.66-1.86-1.07.92-2,3.65-2.31,4.83,4.19-.53,9,3.18,10.67,4.84-.07-2.28.39-5.25.3-7.81Zm4.8-16.64c-.82.05-2.58-1.59-4.34-3.29-2.21-2.13-6.42-3.7-8-1.86a2.43,2.43,0,0,0-.69,1.88,1.39,1.39,0,0,0,.93,1.13,6.67,6.67,0,0,0,1.94.34c-.2,1.52-.32,2.56-1.12,2.57a3.88,3.88,0,0,1-3.87-4.5,5.76,5.76,0,0,1,1.32-3.17c1.31-1.65,2.8-1.71,4.19-1.79,3.6-.21,7.1,5.92,9.63,8.69Zm2.5-57.22,7-13.41,4.1-1,1.74,1.37-4.78,9.55c-.47,1-.2,2,1,1.9s3.33-.62,3.85-1.72l3.7-7.89-1.46-2.64,4.14-2,.86,1,1.37-.08-2.53,1.5-.89-1.18-1.69.78,1.42,2.54-3.63,7.74c-1,2.23-5.49,3.32-6.95,2.64-.83-.39-.58-1.87-.18-2.7l4.38-9.11-.81-.75-3.08.71-4.48,8.47c.76-.5,2.81-1.13,1.5,1.25a15.87,15.87,0,0,1-3.33,3.3l-1.24-.22Zm1.6-1.32,1-2c1.28-1.05,1.76-.87,1.24.07A4.43,4.43,0,0,1,93.65,144.62Z"/><path d="M195.71,257.75c-4.89,3.83,5.68,6.8,7.73,10.43s-4.86,7.49-4.72,7.5,7.78-4.57,5.85-8-12-6.58-8.86-9.9ZM174.12,60.1c.13-.08-.54.21-1.13.44-.11.2-5.68,2.62-8.73,5.41-.12.64,2.2,2.09,8.11-.88-.94,1.41-6.58,7.34-10.29,9.6-1.61,1-1.2-1.31-3.58-.26-3.62,1.6-13.29,8.69-14,14.22-.31,2.59,11.05-5.66,10.47-3.32-.73,2.94-5.46,15.24-14,21.29-7.72,1.41-8.16,1.34-13.43,2.36-6.88,0,13.19-11.4,3.84-11.87-11.78-.6-13.67,5.68-16.32,10.82,3-5.07,5.36-11.31,16.49-10.64,7.69.46-11.67,12-4.19,12,5.28-1,6.06-1,13.79-2.45,8.58-6,13.49-18.56,14.22-21.9.52-2.36-11.05,6-10.65,3.41.76-4.83,10.36-12.16,14-13.79,2-.91,1.71,1.51,3.32.53,3.71-2.27,10.1-8.76,11.17-10.65-5.92,3-8.58,2.13-8.46,1.49,2.91-2.66,8.81-5.46,9.42-5.85Zm-59.06,47.81c-2.25,3.79-4.83,7-11.7,6,5.32-6.33,12.48-13.66,17-19.45-3,2.19-3,1.78-1.66.26-2,2.12-2.6,3,.7.61-5.63,6.14-11.09,12.51-16.41,18.84,7.61,1,10-2.35,12-6.28Zm57.58-47.29c-.62.18-2.21.75-5.15,1.75-7.36,3.76-14.27,8.07-21.81,11.6-5.4,4.83-8.64,6.7-12.82,10.56.78-1.75-.12-1.52-1.84-.44,1.46-.81,2.23-.77,1.49.88,4.19-3.86,7.94-6,13.34-10.82,7.54-3.53,14.45-7.85,21.81-11.6,2.85-1.1,4-1.57,5-1.93ZM335.35,66c5.8,3.14,12.8,8.57,19.63,12.3-3.8-2.54-10.25-7.72-19.63-12.3Zm-23.9,2.87a39.11,39.11,0,0,0-6.63.7c17.95-2.44,4.9,13.11,28,8.55C315,79.43,323.61,69,311.45,68.82Zm-55.84,1.49c-5.22.35-11.23,2.19-13.27,4,3-2.15,13.3-4.3,17.45-2.79,3.68,1.34-2.64,3.74,3.15,7.16,2.32,1.37,10.93,1.41,18.49.08-7.51,1-15.57-.09-17.27-.69-2.88-1,.82-6.18-2.71-7.33a16.17,16.17,0,0,0-5.84-.44ZM293,74.5c-.82,3,10.9,17.8,19.45,18.06,2.56.07,3.65-2.71,5.41-4.45s2.91-2.87,3.93-3.06c.79-.15-2.06-1.28-3.93.09s-3.58,4.85-5.15,5.23c-5.57,1.37-16.64-13.6-19.71-15.87Zm-51.39.69a.58.58,0,0,0,0,.53A.8.8,0,0,1,241.65,75.19Zm115.6,1.57c-.06.16.92.79,1.48,1.49a3.61,3.61,0,0,0-1.05-1.31c1.62-.34,12.53,8.26,14,9.51,2.35,2-2.42.09-2.18,1.83.41,2.9,9.42,10.78,17,18.06-4,1.36-8.9,6.21-8.9,9.16,0,5.13,7.49,7.15,9.94,10.39,2.33,3.06-1.51,4.8-10.38,7.32,4.92,2.12,15-.92,13.09-6.71-2.07-6.39-8.87-5-10.21-10.73-.5-2.19,6.85-7.74,8.12-8.2,8.36,6.21,20.46,19.74,19.54,22.77-.31,1-4-2.67-6-1.57C398.18,130.69,411,150.22,415,152c1.46.64,2.42-9.58,1.22-9.59-2.41,0-.2,7.88-1.66,7.15s-11.5-13.53-11.25-18.15c.09-1.63,6.32,2,6.19-.26-.2-3.7-11.94-17.05-21.55-25.21-13.86-13.16-18-16.53-17.19-17.63s4.19,1,3.49.09c-1.63-2.09-12.69-10.63-15.79-11.43-.86-.22-1.19-.26-1.22-.18Zm1.48,1.49a1.79,1.79,0,0,1,.17,1.31.76.76,0,0,0,.09-.09c.27-.38.07-.82-.26-1.22Zm.17,1.31a.93.93,0,0,1-.78.26c.08,0,.18.05.26.09.29.13.43,0,.52-.35Zm-3.57-1.14a9.13,9.13,0,0,0,2.7,1.4C357.12,79.4,356.25,78.91,355.33,78.42Zm-33.24,7.86c5.23,3,11.89,9.1,13.35,13.43,1.18,3.51-2.84,2.23-7.85,2.27,4.81,1.9,11.07,2.41,10.47-1.92-.77-5.48-9.81-13.81-16-13.78ZM240.6,87.41c-6.84,2.24-12.94.9-20.41,1.4,0,.23-.06.67-.09,1,6.63-.44,13,.51,20.5-2.36Zm-20.59,3c-.63,4.33-1.47,8.7-1.31,11.77C218.73,98.87,219.61,93.66,220,90.38ZM129,97.7c-3.27.2-7.88,1.91-8.82,3.84-4,8.24-9.84,15.93-17.71,13.44-4.94,4.18-15.07,17-14.92,22.86,0,1.31,5.88-6.39,6.37-5.06.8,2.18-1.83,7.55-4.1,11.25-2,3.17-4.39,7.35-7.15,9.07-.54.33-1.22-4.56-2-3.49-5.55,7.53-12,19-11.78,26.35.12,4.19,7.67,7.09,12.83,0,1.8-2.48-.21-10.75,2-13a13.56,13.56,0,0,1,6.9-3.66c3-.54,9.63.62,9.16,3.66-.87,5.62-8.72,9.75-5.76,12.65,4.87,4.78,20.18,3.67,27.57-.61-3.52-11.44,4.46-31.21,12.74-33.76,2.86-.88,5.46,2.82,9.07,1.83,6.65-1.82,8.19-8.34,8.29-12.39.1-3.83,1-8.55-2.27-7.76-4.24,1-11.45,9-14.74,5.93-5.34-5,2.63-14.2,6.28-20.94-3.65,0-14.88,3.43-17,1.57,0,3.35,11.51-.41,15.52-.44-3.65,6.74-10.78,15.27-5.75,20.59,2.56,2.73,10.32-4,14.57-5,3.31-.79,2.36,3,2.26,6.81-.1,4-.85,9-7.5,10.81-3.61,1-5.87-3.15-8.73-2.26-8.27,2.55-17.9,23-14.39,34.46-7.39,4.28-19.74,4-24.6.87-3.48-2.25,4.53-7.3,5.41-12.91.47-3.05-6.62-4.47-9.6-3.93a18.68,18.68,0,0,0-8.12,4.1c-2.21,2.25,0,10.74-2.09,13-5.16,5.65-11.23,4.36-11.34.18-.2-7.37,6.07-17.8,10.9-24.61.78-1.09,1.48,3.39,2,3.06,2.76-1.73,5.52-6.39,7.68-9.43,2.47-3.5,5.7-11.06,4.62-13.52-.57-1.29-6.87,6.43-6.54,5.15,1.47-5.8,9.62-16.41,14.57-20.59,7.87,2.49,13.68-5.28,17.71-13.52,1.07-2.21,6.93-4,10.12-3.75a2.58,2.58,0,0,1,1,.26c.22-.57-.11-.93-1.39-1a8.85,8.85,0,0,0-1.3-.09Zm2.7,1.14c-.69,1.81-7.21,5.6-8.11,9.51a1.06,1.06,0,0,0,.35,1.13,1,1,0,0,1,0-.35c1.06-4.63,10-9.1,7.76-10.29ZM324.27,100c-2.26-.07-3.61,2.3-3.57,4.72.05,3.83,9,21.91,16.14,24.34-11.92,7.55-14.6,5.44-32.11,8.2,11.36-.72,26.34,1.59,36.47-8.9-9-4.32-14.5-14.32-17.28-23.56-1-3.45.82-3.09,2.88-3.84a4.78,4.78,0,0,0-2.53-1Zm-105.57,2.8a3.39,3.39,0,0,0,.44,1.92c.1.11.16.15.26.26a4.26,4.26,0,0,1-.52-1.14,9,9,0,0,1-.18-1Zm20.59.17a4.18,4.18,0,0,0-1.13.09c-5.73,1.44-9.87,7.21-13.87,7-1.71-1.69-2.61-2.55-3.4-3.32,3.31,3.76,4.21,4.76,7.5,3.66,5-1.64,8.27-6.78,14-6.54a3.46,3.46,0,0,1,1,.17A10.79,10.79,0,0,0,239.29,102.94ZM99.53,113.76l-.09.17,1.83.7C98,118.23,86.7,129,86.61,137.49a1.86,1.86,0,0,0,.53,1.48c.59.55,1.91-.66,5-3.84.06-.06.74-.82.79-.09.14,2.42-7.13,13.14-8.81,15.1-.92,1.06-1.09,1-1.4.17-.75-2-1-3-1.4-2.88-.8.21-6.39,7.63-10.47,16.67a58.35,58.35,0,0,0-3.31,9.33,14.84,14.84,0,0,0-2.71-1.92l-.17.61a6.61,6.61,0,0,1,3.14,2.71c1.38-8.26,8.17-21.4,13.35-26.79.71-.74,1.5,4.24,2.26,3.41,4.11-4.42,10-14.36,9.86-16.67-.16-2.12-4.26,3.75-5.58,3.93a.81.81,0,0,1-.79-.61c-.6-6.71,7.9-16.36,14.83-23.47l-2.17-.87Zm262.69,3.92c-9.94-.21-22.58,7.82-21.11,9.34,2.05,2.12,13.2-10.33,27.39-7.68a12.51,12.51,0,0,0-6.28-1.66Zm1.4,2.36c12.65,2-1.19,17.78,16.83,15.27-14.87-1.21-.82-16-16.83-15.27Zm-74,1.83c-15,.5-29.75,7.35-25.12,13.26,2.26,2.89,12.27,5.84,10,8.9-5,6.81-17.37,7.54-39.43,9.86,32.95-.72,35.26-2.64,42.57-9.34,5-4.58-8.19-7-10.2-11.69-2.18-5.05,17.64-11.53,31.84-10.3a43.25,43.25,0,0,0-6.72-.69Q291.12,121.83,289.63,121.87Zm3.67,1.83c-.69,0-1.38,0-2.1.09a27.28,27.28,0,0,0-9.77,2.27c6.8-1,12.55-2.46,15.53.35,1.53,1.44-2,6.23-1.57,9,.86,5.35,3.39,4.42,27.49,3-21.86-.7-27.35,2.66-22.08-10.56C301.9,125.15,298.1,123.77,293.3,123.7Zm48.86,6.55a.52.52,0,0,0-.44.17c-1.85,2.21,12.89,11.82,12.56,22-.13,4,.05,4.33-6.28,3.76,5.26,1.66,9.6,2.31,9.69-3.41.13-9.6-12.68-22.44-15.53-22.5Zm75.46,14.48c4.7,7.25,8.27,11.05,12.21,22.16-6,4.34-11.64,11.8-11.16,18.23.36,4.9,6.64,7.5,6.45,10.56-.23,4-6.79,10-11.16,11.17,6.38,4.2,14.19-7.46,14.13-12.83,0-2.66-5.08-3.73-6.37-8.89-1.46-5.81,7.79-15.06,8.64-15.79,3.51,3.06,8.65,36.08,12,21.46-3.63,9.77-6.71-14-10.9-22,1.94-1.15,1.05-.78,2.79-2.35-.27-.61,0-1.17-.87-2.1a18.52,18.52,0,0,0-2.71,2.1c-2.72-9.17-7.26-17-13.08-21.73ZM273,150.57c-18.21,4.7-23.34,4.48-35.43,5.15C250,157.54,259.22,155,273,150.57ZM228,154.67c-1.17,0-2.78.09-5,.18,5.3.05,7.11,1.81,7.15,1.74a29.78,29.78,0,0,1,9.34,22c-.29,6.77-2.59,11-13.35,8-10.35-2.85-22.5,1-20.33,13.09,1.46,8.16,1.79,19,16.32,17.88-9,.11-14.28-10.72-13.62-20,.91-12.67,12.5-11.74,22-9.51,5.15,1.21,9.92,1.83,12.65-9.68,1-4.36-2.36-13.88-11-23.56a32.86,32.86,0,0,0-4.19-.18Zm114.81,1c-.94,0-1.78,0-2.61.09-5,.33-7.87,2.3-8.11,6.2-.56,8.82,7,24.28,17.79,21.55-10.79-4.85-14.4-13.34-14-22.51.19-3.93,4.22-4.9,10-5.07-1-.13-2-.21-3.06-.26Zm-120.13.27c-12.75.28-31.36,8.31-37.35,11.34-2.83,1.44,9.59,9.31,7.16,12.74-6.75,9.51-27,11.15-36.12,8.72-9.58-2.57,8.42-15.29,3.22-18.5-6.59-4.07-20.61-.8-35.77,5.68,1.65,13.83,2.29,16.05-.78,25.47-1.09,3.34-5.1,11.84-14.31,4.71-4.91-3.8-9.26.28-10.3,7.77-1.42,10.29.61,20.38,9.86,12.3,3.67-3.21,9.43-1.62,10.47,1.4,4.39,12.69,7.94,21.38,2,32.54,29.7-8,41.19-3,45.45-1.31,5.73,2.24.41,7.81-4.27,14.22,6.91-7.18,10.35-12.2,5.24-15.44-9.16-5.8-30.79-2.81-44.41.87,4.66-10-.12-23.82-3.23-31.14-1.81-4.27-8.39-5.76-11.78-2.27-9.91,10.2-8.63-5.6-7.68-12.22.6-4.15,3.31-8.9,8-5.58,5,3.54,9.88,7,15.79-4.36,4.22-8.15,3.79-17.65,1.92-26.87,15-5.89,25.73-8.78,32.63-4.27,3.09,2-11.13,11.55-6.28,16.14,5.21,4.93,32.47,3.32,40.39-6.2,5.13-6.15-10.52-12.28-5.93-14.57,8.89-4.42,26.79-11.22,41.09-10.73a22,22,0,0,0-5.05-.44Zm121.7,2.18a15.81,15.81,0,0,0-3.14.35c4.85,1.65,6.83,2,12.56,1C350.3,158.78,347.49,158,344.42,158.08ZM91.93,160.52c-2.55,0-5.2.62-6.71,2-2.8,2.55-.68,10.06-3,14.13-3.23,5.74-9.85,6.74-14.66,1.57C66,188,61.78,207.76,58.7,206.94c.07.05.09.23.17.26,3.06,1.25,7.61-17.42,9.25-27,4.75,5.06,12.5,1.62,15.7-4,2.27-4-.83-11.38,2.44-13.18,3.77-2.06,13.56-1.81,10.91,1.4s-7.37,8.24-5.32,12.82c2.37,5.32,20.18,5.78,29.4.44.73,10.68,1.51,23.55-5.24,27.92-3.35,2.17-7.16-4.37-11.34-4.54-9.1-.37-14.41,26.53-3.31,31.15,3.86,1.61,6-4.28,12.47-5.32,3.48-.56,7.92,24.78,4.1,30.53-6.06,9.13-29.2,2.85-33.33-1.92-2.13-2.45,6.72-8.69,4.1-12.65-4.44-6.71-17.08-9.09-20.94-5.32-4.78,4.69,3.69,14.54-.08,17.62-2.47,2-8.16-1.29-10.3-5.84.44-9,2.4-39-2-31.15,0-3.35-.11-5.7.08-7.85a81,81,0,0,0-.35,9.07c4.34-7.83,1.83,21.84,1.57,31,2.86,5.53,8.94,8.34,11.43,6.28,3.81-3.14-4.32-13.27.52-18,3.91-3.86,12.71-1.06,18.32,4.45,3.45,3.37-5.16,9.67-3.92,12.73,1.89,4.67,28.82,13.65,37,2,4-5.75-.86-33.2-6.11-31.93-6.45,1.56-8.5,7-12.3,5.15-10.29-5.14-4-28.33,3.23-28.18,4.23.08,8.3,6.48,11.69,4.27,6.83-4.45,6.5-19.91,5.76-30.8-10.16,6.1-28.11,3.88-29.4.88-2-4.71,3-9.86,5.67-13.09,1.68-2-2.36-3.52-6.63-3.49Zm270.2,10.82c-6.32.68-13.1,8.41-12,10.12,1.9,3.06,8.4-9.62,14.57-10a6.44,6.44,0,0,0-1.31-.17A8.42,8.42,0,0,0,362.13,171.34ZM64.54,173.61a.82.82,0,0,0-.87.61c-.37,1.2,3.89-.8,2.61,5.32-1.06,5.13-2.84,16-6.37,22.77-.42.83-1.18-5.3-2-5-2.64,1.06-5.17,22.77-3.41,25,0,0,1-2.06,1.31-1,1.68,5.75-.62,8.78-.52,24.52-.39-1.41-3.53-7.85-3.75-5.32-.07.75,2.3,5.54,4.1,7.5-.22-8.6,2.76-22.92.61-28.35-.28-.7-1.27,1.25-1.57,1.57-.38-6.83,0-17.68,2.88-22.51.55-1,1.17,6.49,1.74,5.67,3.81-5.58,6-18.18,7.42-25,.74-3.63-1-5.69-2.18-5.76Zm299.26.08a1.24,1.24,0,0,0-.79.44c-.21.25,19.75,19.76,12.56,31.41-6.77,11-36.62,12.55-39.17,14.74,11.29-2.11,36-.94,43.27-15.87,5.12-10.52-11.15-31.33-15.87-30.72ZM219.49,188.44a5.64,5.64,0,0,0-3.66,1.05c4.29-.28,14.8,4.37,22.42.78-9.06.92-14.69-1.8-18.76-1.83Zm186.35.09c-9.83.25-24.65,10.71-22.33,13.34,8.69-4,9-8.84,26.17-12.82a9.86,9.86,0,0,0-3.84-.52Zm2.8,2.53c3.56,6.68-6,24.24,6.8,17C405.82,209.86,415.71,192.75,408.64,191.06Zm-79.83,9.77c-15.6-.27-37.66,8.26-37.87,16.92-.12,5.37,17.77,7.87,10.56,13.27-18.37,13.73-43.39,8.58-44.06,11.86,11.16.06,33.25,1.47,48.86-12.56,5.9-5.3-12.78-10-11.78-14.14,1.86-7.58,27.16-15.65,40.48-14.65a30,30,0,0,0-6.19-.7Zm-271.69.78a44.26,44.26,0,0,0-1.65,8.29A32.12,32.12,0,0,1,57,203.45a11.19,11.19,0,0,0,1,2.61,36.27,36.27,0,0,1-.79-4.45Zm274.22,2.53c-2.83,0-6.9.55-11.43.7,11.48-.09,14-1.34,7.85,10-4.88,9,9.81,8.06,13.52,7.85-3.94-.16-12.56-2-8.89-8.2,5.07-8.6,3.67-10.34-1.05-10.38Zm-92.83,1.31c-8.49.28-14.07,8-19.46,9.43,5.43,3.26,13-10.06,25.83-8.29A15.61,15.61,0,0,0,238.51,205.45Zm141.33,2.71c-8.49,3.59,2.25,36.7,12.13,30.09C380.71,233.7,381,220.61,379.84,208.16Zm-139.68.26a3.21,3.21,0,0,0-.61.09c5.18,7.07,15.53,20.2,10,32.71-14.43-.28-49.62,8.05-56.7,13.52-10.19,7.88,9.54,13,6.1,16.58-6.44,6.71-25.34,8.1-37,3.84,6.69,5.69,33.45,4.51,39.26-3.84,3.24-4.66-14.85-8.91-8.63-14.66,6.91-6.38,41-14.33,59.76-13.61.26-.86,1.5-1.77,2.35-3.92,3.76-9.48-7.61-29.58-14-30.71a2.08,2.08,0,0,0-.61,0Zm164.73,14c-5.48.26-11.69,12.92-13.88,13.44,6.45,3.4,10-12.62,16.14-12.65A3.54,3.54,0,0,0,404.89,222.46Zm.87,2.36c-1.34,4,7.45,6.46,3,22.77-4.47.37-10.61-1.26-16.05,5.23-1.7,2-7.62,25.85,1.84,35-12.75,13-36.16,14.94-39,16.84-1.77,3.6,28.21-2.34,39.25-14.14,3.17-3.38,28.91-25.78,31.5-24.07,1.46,1-4.47,16.45-3.14,18.93s13.72-10.26,16.23-15.79C435,276,426.41,285,425.91,282.84c-1.28-5.48,5.9-20,.09-18.24S401.9,280.43,397.65,285c-4.31-1.15-6-22.19-1.84-31.06,2.95-6.34,14.83-1.57,16.58-6.89,3-9.15-.8-20.84-6.63-22.25ZM74,238c-2.41-.06-4.53.83-5.49,3.41-1.3,3.48,4.77,11.74,1.74,15.09-3.31,3.66-7.66,3.44-13.17-3.23,1.51,3.35,8.24,8.73,14.31,3.58,4.1-3.49-3.51-10.82-1.83-15.45,1.77-4.9,8.85-2.52,12.82.7,5.12,4.16-2.71,8.09-1.66,12.83,2.56,11.55,28.57,12.19,34.29,10.64-3.51,12.11-1.16,36.8,18.5,29.23-16.4,5.57-20.84-16.33-16.32-30.71-10.77,3.08-33.76.34-35.16-8.64-1.15-7.41,8.55-9.36-.44-14.83A16.5,16.5,0,0,0,74,238Zm207,5.59c-1.25.15-4.35.65-6.72.78-3.16.18-16.81.57-16.93,1-.24.84,12.57-.26,15.71-.35a33.41,33.41,0,0,0,8.46-1.39C281.54,243.51,281.32,243.53,280.91,243.58Zm-38.74,1.48c-1.27.05-2.47.2-3.66.35,4.6.16,7.47-.16,9.33.44-.31,5.53-9.73,34.75,16.49,34.63-19.68-4.61-14.14-22.14-13.35-35.07A56.9,56.9,0,0,0,242.17,245.06ZM56,251.69c-1.61,6.23-.33,22.79,2.79,26.52,1.58,1.89,1.85-3.74,4.89.44,3.2,4.39,5.67,16.29,3.31,22.25,4.22-4.78,1-15.34-1.57-21.55-3.53-8.63-7,.72-7.85-4.89C56.68,268.64,54.75,261.38,56,251.69Zm101.12,6c-1.48,0-3.08,0-4.89.09,8.11.71,10.24,1,10.21,3.84,0,4.27-10.78,11.53-5.41,15.61,4.84,3.68,6.22,2.29,18.58,3.84-12.56-2.33-16.81-2.79-16.4-7.24s7.74-9.23,6.28-12.74c-1-2.54-3.95-3.29-8.37-3.4ZM144,257.8c-8.49.14-17.06,1.12-23.55,4.1-3.63,12.11-5.75,28,5.75,31.84,6.05,2,11.61-6.36,17.45-5.15,9.81,2,14.62,16.89,8.72,26.35,8.15-5.89,4-27.72-10.12-27.92-7.27-.1-13,7.24-16.22,5.5-8.36-4.44-7.25-19.73-4.54-30,8.36-3.1,12.75-4.17,30.88-4.62q-4.19-.15-8.37-.09Zm304,6.89c-6.41,3.21-6.73,15.7-3.57,22.6C442.49,280.53,442.47,269.41,448.07,264.69Zm-161.49,1.92c-9.37-.07-14.88,9.66-24.34,11,8.52,4.45,16.55-10.76,28.61-10.29a14.74,14.74,0,0,0-4.27-.7Zm-32.71.61c-.82.32-.41,3.41,1.56,5.85s5.57,4.15,6.64,3.75c.48-.18-2.48-2.13-4.54-4.54s-3.29-5.21-3.66-5.06Zm34.54,1.92a1.14,1.14,0,0,0-.78,1c-.3,1.42,5.91,4.85,5.76,11.43-.09,3.84,2.73,13.25-8.2,12-11.59-1.37-26.56-1.77-27.48,17.1-.32,6.55-2.13,11.35,3.05,18.76-13.68,2-53,8.22-55.49,14.22-2.86,6.82,11.87,8.83,10.21,11.25-2.08,3-19.36,5-34.63,2.79,2.86,5.44,31.57,5.16,38.73-2.26,2.81-2.91-12.73-6.28-10.55-11.08,2.77-6.11,50.18-13.2,57.75-13C259,321,261.45,314.79,262,310.58c1.49-11.71,4.48-16.91,18.15-15.53,11.07,1.11,17.59,2.24,17.71-13.17.05-6.28-6.23-12.59-9-12.74a1.62,1.62,0,0,0-.44,0ZM65.5,287.29c1.47,8.85,1.3,13.21-2.18,6.45-1.3-2.52-3.85-6.12-3.84-2.26,2.47-2.52,5.79,10,6.81,6.54,1.46-4.91.19-10.73-.79-10.73Zm287.47.08c-12.87,0-37.5,9.53-41.7,18.06-2.37,4.81,15,8.26,10.3,11.69-20.2,14.9-50.13,10.88-50,13.88,7.39,1,40.8-1,54.62-14.84,3.84-3.84-12.71-7.88-9.51-12.2,5.78-7.82,29.8-16,42.93-15-1.32-1.14-3.66-1.58-6.64-1.58Zm46.33.61c-4.71,4.35,5.29,16.66-1.14,24.61-5.67,7-16.08.67-22.16,10.81-4.25,7.11-6.79,21,5.15,19.28-6.4-4.21-5.52-11.59-1.48-18.23,6-9.82,15.35-2.24,21.2-11C405.17,307,405.21,295.18,399.3,288Zm-44.14,1.93c-.37,0-.69.34-.87.95-2.61,8.64-6.72,10-6.64,14.31.06,2.66,1.65,3.21,7.33,2.27a3.53,3.53,0,0,1-3-3.58c.29-3.69,3.79-7.2,5.5-11.25.37-.91-1.24-2.86-2.36-2.7Zm-211.4.43c6.77,9.83,7.61,18.13,3.05,22.77-2.37,2.41-14.81-8.88-20.41-4-8.37,7.27-4.16,25.75,2.79,32.45-9.88.94-25.63-2.23-32.11-9.68-2.72-3.14,3.32-6,.7-9.95-3.42-5.18-22.23-13.42-23.38-9.07a5.35,5.35,0,0,0,.44,2.79c-.16-.61-.13-1,.17-1.31,4-3.64,16.72,5.11,22,8.38,2.8,1.73-3.18,7.66-.88,9.86,7.66,7.28,21.93,12.72,36.3,9.68-7.21-8.36-11.4-23.1-5.06-30.53,3.88-4.56,15.59,5.57,21.55,3,7-3.07,3-22.88-5.15-24.34Zm-6.89,2.88c-.74.38-1.49.74-2.18,1C135.4,294,136.11,293.61,136.87,293.22Zm-75.56.09c-1.43,11.95,7.42,31,17.8,35.33,7.3,3-.07-5.26-3.14-10.56,2.51,4.74,7,10.23,5.15,9.86C71,325.85,61.88,308.55,61.31,293.31Zm215.15,3.31c-1.09,0-1.85.17-1.83.35.07.81,11.75,1.9,11.69.87C286.27,297,279.74,296.52,276.46,296.62ZM129.89,312.16c-4.41.32-4.14,23,3.66,28.79,3.29,2.44,38.45-4,52.87,4.36-9.52-10.45-43.57-4.82-51.47-6s-8.76-27.52-4.63-27A1,1,0,0,0,129.89,312.16Zm-51.13,2.78c-6.34-.13,6.11,12.18,5.06,16C87.44,325.69,75.76,317.91,78.76,314.94Zm14,7c2.65,2.86-5.39,7.49,4,14C89.63,327.8,100.79,324.83,92.81,321.92Zm307.1,5.32c-7-.14-13.25,9.5-18.41,14.83,6.38-4.69,12.23-11.93,19.81-14.65A8.25,8.25,0,0,0,399.91,327.24Zm-1.57,2.36a.55.55,0,0,0-.35.17c-2.5,2.38,3.16,12.68-2.53,21.55-7.35,8.54-26,16.5-37.16,21,7.92-.32,28.77-10.77,34.72-16.75-3.31,9.53-8.09,17.15-1.57,16.32-5.4-1.66,2.38-13.17,4.54-19.11,8.63-5.7,13.49-12.25,21.72-19.63C412.61,336.93,404,346.3,399,348.8,403.62,340.71,400.19,329.63,398.34,329.6Zm23.38,1.75c-12.55,23.13-4,12.5,5.41.52C418.4,339.84,410.25,355.06,421.72,331.35ZM270,333c-1,.35-2.2,2.19-1.74,2.79,3.75,4.88,8.73,12.9,8.55,15.1-1.22,14.82-10.84,9.43-20.85,8.37-6.81-.71-16.28,2.84-16.84,8.73-.84,8.79,6.86,15.73,12,14.22-6-3.94-8.69-8.65-7.68-14.31,1.45-8.09,16.68-7,22.86-5.84,9.49,1.7,14.24-5.88,14.66-11.87.26-3.83-4.73-10.35-10-16.93a.84.84,0,0,0-1-.26ZM137,343.73c-1.09,1.27,11.35,12.14,9.86,22.34C152.29,359.26,138,342.55,137,343.73Zm39.61.09c3.51,2.93,2.57,4.38.35,6.37-5.47,4.92-5.71,7.05,3.32,9.77-5.69-4.73-2.51-5.8-.17-7.94C184.11,348.32,183.77,344.24,176.56,343.82Zm-43.09.61c-.86-.67,10.81,14.62,7.76,21.12-1.88,4-17.4-9.27-21.2-4.19-1.8,2.4,4.46,13,10.3,17.8-6.3-6.75-11.62-14.88-8.64-16.93,4.61-3.17,16.77,10,21.64,5.15C148.88,361.81,137.16,347.34,133.47,344.43Zm272.11,13c-2.58-.19-9.7,9-12.91,13.09,3.66-4,10.66-11.54,11.51-11.34s-.47,3.8-1.48,5.23c-5.54,7.89-14.14,11-19,17.45-3.52,4.34-7.64,8.32-7.94,13.7.67-3.84,5.58-9.53,8.73-13,6.6-7.72,12.36-10.61,18.14-16.84,2.38-2.56,4.33-7.39,3.4-8.11a.69.69,0,0,0-.43-.18Zm-43.71,2.27c-13.46.18-41.84,13.37-40.48,18,.71,2.38,8.91,3.54,6.9,5.58-8.76,8.89-37.49,10.71-40.23,13.09,15.89-1.24,36.94-6.08,45.55-14.57,1.75-1.72-9.3-3.74-8-5.76,1.89-3,24.4-14.53,38.74-16.23a17.48,17.48,0,0,0-2.45-.08Zm-.26,1.92c-1.57-.67-17.5,18.73-4.36,11.86C351.79,372.78,365,363.08,361.61,361.62Zm-238.44,3.49c3,9.81,9.46,18,18,14.31,5-2.15,22,8,25.22,19.46-.51-9.75-16.05-23.07-25.39-21-9.51,2.08-9-.32-17.8-12.74ZM103,372.35c-1.67.08,6.11,5.78,10,10.65.63.78-3.8-2.48-5-2.62,1.08,1.08,7.79,5.14,7.06,3.75-1.61-3.08-11.7-10.3-10.12-10.12,3.09.35,27.43,12.37,21.38,14.49,8.3-2.24-15.85-13.53-22.08-15.8a4.28,4.28,0,0,0-1.3-.35Zm171.44,1c-7.08.56-13.87,5.3-20.68,7.59,6.21,1.88,14.37-7.67,27.83-6.46a15.63,15.63,0,0,0-7.15-1.13Zm2.78,3.31a2.15,2.15,0,0,0-1.3.79c3.64,3.53,7.37,6,8,11.95.49,2.7-.75,4.38-2,6.54,1.46.76,2.16.15,3.67.17,1.93-2.51,2.83-5.57,2.27-8C286.86,383.67,280.81,376.19,277.24,376.71Zm-128,5.85c18.31,20.1,19.27,26.4-22.33,7.77C156.39,410.3,180.23,407.11,149.25,382.56Zm-25.47,2.09a.61.61,0,0,0-.44.09c-1,.45-1.19,3.39,1.31,4.54C125.29,387.67,124.8,384.92,123.78,384.65ZM277,396.43c-15.81.74-42.15,6.61-49.9,9.34-5.21,1.82,11.3,7.09,8.37,7.68-11.45,2.25-16.48,2-29.22.69,6.61,2.17,26,3.15,33.58-.52,3.75-1.8-12.24-5.54-9-6.72,14-5.08,30.89-6.52,52.17-10.38a50.36,50.36,0,0,0-6-.09Zm94.93,2c-6.94,1.09-35.71,23.41-16.66,7.58-23.52,17.9,13.31-7.33,17.79-7.5A1.92,1.92,0,0,0,371.91,398.44ZM283,399c-5.23.23-5.73,5.78-5.68,9.69.06,4.27,4.71,7.31,11.08,5.85-4.4-1.82-6.51-2.46-6.8-6.9-.27-4.07.37-5.53,2.45-8.63a7.43,7.43,0,0,0-1.05,0Zm-110.64,2.88c-3.47,0-5.65.18-5.58.44.38,1.38,30.2-.3,45.19,5.67C204.75,403,182.79,401.73,172.37,401.84Zm-10,2.27a1,1,0,0,0-.43.09c-2.59,1.22,4.86,10.34,11.77,13.34C165.65,412,164.29,404.2,162.34,404.11Zm3.75.78c4.17,9.23,8.62,14.39,19.37,13.79,7.16-.4,16.21.75,21.55,6.19-4.85-6-12.07-7.8-23.64-7.68-8,.09-14.29-7-17.28-12.3Zm147,0c-6.63,0-19.51,8.15-23.47,8.47,5.42,2.16,13.94-6.74,25.83-7.94a4.53,4.53,0,0,0-2.36-.53Zm39.44.61c-7.29,1.34-25.83,7.63-31.67,13.44-.84.83,4.53.58,3.75,1.22-6.87,5.63-29.81,8-34.81,11.43-2.23,1.52,5.16,1.66,3.23,2.7-5.24,2.85-19.86,1.73-24.43,5.68,3.64-2,24.58-4.07,26.87-5.94,1.56-1.26-5.78-2.34-3.49-3,8.72-2.72,28.27-5.12,35.69-11.61,1.46-1.28-7-.05-2.88-2.26,8.54-4.6,20.67-9.41,26.7-10.82,1.59-.37-4.77,3.72-6.38,5.76C347.12,410.85,354.44,405.16,352.54,405.5Zm-150.15,1.14c4.66,3.31-8.94,6.22,1.92,8.81C200.23,410.71,213.78,408.27,202.39,406.64Zm110.63,1a6.61,6.61,0,0,0-3.23.79c5.68,2.1,1.52,9-4.28,9.16S295,417.38,289.72,420c-4.86,2.41-7.94,6-6.28,11.08-9.78,1.32-28.68,4-35.33,5.5-1,.22.51.66,2.09,1.05-.63-.43.15-1,.87-1.23,6.32-1.76,25.87-3.46,37-4.88-1-2.34-2.17-5,.95-8.38,3.32-3.55,8.66-4.08,16.14-4.45A13.44,13.44,0,0,0,316,412.57c1.31-2.1-.14-4.71-3-4.89ZM196.54,420.25c2.53,1.95,6.71,5.93,4.45,6-5.25.21-21.43-4.88-19.11-1.75,8.92,12,37.09,9.17,52.09,12.3-12.65-3.48-40.88-1.32-48.86-11.08-4-4.85,17.5,4.46,19.37,1.31C205.59,425.19,199.29,421.69,196.54,420.25Z" fill="url(#radial-gradient-2)"/><path d="M330,64c-3.07,1.1-4.33,1-5.76,2.7.88,1.14,3.52,2.22,4.89,3,10.62,5.82,8.61,5.21,4.09,9.33,8.42-4.13,2.12-6-3.84-9.33a29.29,29.29,0,0,1-4.62-3A18.3,18.3,0,0,1,330,64Zm-35.6,9.68c-.27,0-.14.16-.87.26,3.52,3.16,14.62,18.34,20.16,15-6.36.41-13.32-9.89-19.29-15.27Zm64.39,3.84c1.34,1.77,1.05,2.26.44,2.79,3.19.43.45-2-.44-2.79ZM323,85.66a23.21,23.21,0,0,1,12.13,8c2.47,3,4.37,6.48,2.62,9.25,5-2.74,1.19-6.35-2.36-10.3a21.23,21.23,0,0,0-12.39-7Zm-1.92.7c-1.67,1.57-3.93,4.08-3.31,4.63C319.32,92.39,321.1,89.3,321,86.36Zm4.1,15.62c-1.31,0,0,5.81,2.27,10.21,3.3,6.3,8.2,12.4,12.21,14.83a1.85,1.85,0,0,1,.61-1.66c-9.08-8.18-8.11-10.1-11.69-15.27s-1.44-7.18-3.14-8A.61.61,0,0,0,325.14,102Zm70.5,4.71c.92,2.63-1.53,2.48-3.32,2.62,10.24,9.92,16.89,17.78,17.63,22.07-.66-6.19-10.49-15.64-16.05-21.46,2.89-.31,2.31-2.74,1.74-3.23Zm-7.33,1.83c-7.23,4.78-9.31,6.64-5.67,10C380.12,115.45,383.53,112.11,388.31,108.52Zm-19.63,11.26c7.14,2.83,2.08,13.72,7.76,12.65C372.49,130.18,378.05,122.17,368.68,119.78Zm-10.3.52c-13.43,4.22-19.82,12.88-26.95,15.18a33.24,33.24,0,0,0,11-6,27.64,27.64,0,0,1,11.17,11.6c2.86,5.64,7.58,13.4,1.48,17.28,8-3.88,5.59-9.77,1.05-17.36-2.77-4.64-7.26-9-11.26-12.65a155,155,0,0,1,13.52-8Zm26.61.17c7.72,5.27,7.83,9.4.79,14.05C396.13,128.57,391.4,124.84,385,120.47Zm-85.59,2.8c7.45,5.2-5.22,13.22,4.11,13.78C298.26,133.91,311.06,125.63,299.4,123.27Zm-69.35.43c-5.47,16.65-1.62,25.08,4,31.76,4.77,5.67,14.36,19.62,6.37,30.71-5.8,8.05-17.88-2.89-26.35,2.71-7.94,5.24-6.35,16.55-.17,24.08,10.38,12.64,22.31-11,29.75-4.1,13.34,12.29,14.8,26.77,9.69,34.72-2.1,3.26-3.7,15.12-2.54,22.25s5.12,9.49,12,13.87c8.13,5.2,17-7.13,25.56-10.56,7.36-2.94,19,21.72,3.14,27.49,17.39,2.22,12.29-32.05-3.05-29.06-11.05,2.16-17.74,15-27.57,10.39-11.84-5.56-10-22.58-7.42-32.72,25.41-2.62,45.69.21,57.84-15.62,4-5.2-16.94-11.07-12.3-14.74,4.83-3.81,18.54-9.09,18.67-9.16-9.09,1.62-13,1.92-20.94,8.81-5.57,4.86,14.85,10.17,10.9,14.83-11.31,13.37-32.77,14.8-51.38,13.61,3.15-12.72,2.19-22-9.34-33.5-9.3-9.3-22.19,11.26-29,5.32-8.49-7.44-8.55-18.82-4.89-23.9,6-8.36,20.93,4.77,30.36-4.1,7.84-7.37-2-21.67-6.28-31,5.28-.67,11.73-1.36,18.07-2.27-7.82.76-15.58.64-20.25.78-5.5-10.63-8-17.93-4.87-30.63Zm52.78,1.23c-6,1.9-5.86,1.1-12.39,4.62-8.78,4.72,11.84,8.22,8.55,14-2.34,4.07-7,6.55-12.56,8.11,6.23-1.31,11.5-3,14-5.14,8.79-7.4-17.63-13.32-8.46-17.19,3.61-1.53,5.52-2.51,10.82-4.36Zm-16.4,26.69c-3.45.72-7.19,1.37-11,1.92A64.09,64.09,0,0,0,266.43,151.62Zm137.41-20.33c-1.14,0,2.57,8,4.62,10.56,1.53,1.94,5.81,7.57,6.11,6.8.18-.45-3.88-5.09-5.85-7.67-2.2-2.91-4.3-9.68-4.88-9.69Zm13.61,13.88c.22,5.23-.15,4.91-1.05,6.36C418.85,152.72,418.49,147.79,417.45,145.17Zm3.93,1.83a77.32,77.32,0,0,1,5.93,9.51A42.42,42.42,0,0,0,421.38,147Zm5.93,9.59c1.15,2.58,2.22,5.4,3.4,8.82.6-.26-.9-4.13-3.4-8.82Zm-88.82,1.92c-3.37.81-2.43,16.33,9.33,22.08-14.08-11.71-5.14-20.89-8.55-22A1.73,1.73,0,0,0,338.49,158.51Zm94.06,10.39c-.05,0-.14,0-.18.08,1.28,4.05,2.58,8,3.58,11.52s3.09,12.65,5.49,11.08c-2.46.73-4.27-7.43-5.32-11.52-.85-3.31-2.06-6.6-3.57-11.16Zm-2.19,1.22a40.76,40.76,0,0,0-4.54,5c-3.5,4.48-4.76,8.13-3,11.61-1.2-2.6,1-7.64,3.05-10.39s3-4.06,4.45-6.19ZM368,172.39c-.47-.09-.76.08-.78.61-.1,1.92,15,14.55,13.87,29,1.79-1.54.78-1.06,1.92-2C383.88,187.53,371.28,173,368,172.39Zm-6.8,2.18c-1.92.06-8.8,7.36-7.68,7.85s9.36-6.69,8-7.77a.54.54,0,0,0-.34-.08Zm61.94,12.65a10.33,10.33,0,0,0,1.48,2c4.59,4.59,4.11,5,3.23,8.2a19.29,19.29,0,0,1-5.07,7.85c7.91-7.59,7.76-12.12.79-17.62a3.57,3.57,0,0,1-.43-.44Zm-11.95,2.88a1,1,0,0,0-.53.09c-.93.34,2.38.9,1.84,7.32-.27,3.12-1.31,7.48-.27,9.08.72-.31.09-.5.88-.35-1.33-3.49.18-6.14.43-8.9.43-4.65-1.1-7-2.35-7.24Zm-7.94,1.13c-1.93.27-10,4.56-22.51,13.79-.55,20.44,5,31.44,9.16,30.1,1.22-.39-6.08-4-7.07-28.71,16.71-13.27,21-14.11,20.85-15.09,0-.12-.16-.13-.43-.09Zm39.35,1.57c-.37.14-1,1.27-.61,1.92C443,196.4,442.45,193.19,442.58,192.8Zm-110.11,9.25a60.78,60.78,0,0,0-10.55,2.18c6-.72,14.15-1.69,14.3,1.48.22,4.46-6.12,11.3-3.31,13.79,7.27,6.45,32.67,1.93,43.45-7.24,0-.54.85-2.41.35-2.53-5.69,5.93-31,16.48-41.27,10.38-3.81-2.27,6.18-10.08,4.63-14.57-1-3-4.1-3.73-7.6-3.49ZM446,208.68a2.45,2.45,0,0,0-.09.7A3,3,0,0,1,446,208.68Zm.17,8.64c.16,2.1.3,4,.35,4.88s.14,1.67.26,2.71c-.12-1-.14-2-.17-2.71C446.54,221.05,446.32,219.24,446.15,217.32Zm-37,6.54c-.06,0-.07,0-.09.09-.38,1.15,4.35,7.53,4.63,13.87.55,12.83-4.69,12.56-3.67,13.52s6.17-3.92,5.85-13.44c-.25-7.45-5.87-14.05-6.72-14ZM404.28,226c-3.43,3.11-6.39,7.26-9.25,10.91,5.06-2.25,7.27-6.57,9.25-10.91Zm43.27,3.93a28.05,28.05,0,0,0,1,4.1A38.45,38.45,0,0,1,447.55,229.88Zm-1.22,10.64c-2.32,5.56-5,9.44-7.16,15.53-1.47,4.23,2.23,6.58,2.27,8.73a8.8,8.8,0,0,1-.79,3.4l1.05-2.1c.77-1.58-1.27-3.74-2.18-6.8-1-3.44,4.89-12.57,6.81-18.76Zm-42.05,10.3c-1.93.05-3.79.33-3.76.7.07.81,7.73,1,7.68,0C408.17,251,406.2,250.76,404.28,250.82Zm-5.07,1c-4.47-.26-5.43,11.16-5.4,16.31,0,6.06,1,15.31,3.75,16.58.29-.58,1.61-1.4,1.92-2-4-3.29-3-9.37-3.49-14.13C395.44,262.87,400.06,251.83,399.21,251.78ZM429.83,265c-1.45.34-.2,3.7-1.56,8-1.13,3.57-3.25,8.44-1.4,9.34-.15-3.1,1.79-6.87,2.71-10.56s1.67-7.13.25-6.8Zm17.46,1.22c-2.94,2.35-4.63,11.69-2.88,17.54C443.2,277.39,444.57,269,447.29,266.26ZM423,268.35a195.16,195.16,0,0,0-23.64,18.41c9.32,14.28,4.92,28.38-6.54,33.94,16.47-5.56,16.41-27.95,9.15-35,5.17-5.18,19.08-15,21-17.37ZM118.2,287.46c4.15,7.15,8.32,8.6,12.91,7.5,5.23-1.25,10.46-6.36,14-4.71,6.34,3,10.6,15.82,5.85,22.95-4.93,7.38-14.69-4.2-22.16-2s-2.11,26.74,4.36,31.32c-15.86,3.56-30.27-3.28-37.69-9.68,2.94,9,26.2,16.38,38.13,10.9,7.12,6.73,15.16,19.84,9.77,24-5.19,4-18.16-7.31-21.38-4.27-1.89,1.78,6.9,16.46,13.26,18.32,4.35,1.27,8.59-3,14.66,2.18-4.77-5.95-7.56-3.37-13.35-3.31-7.9.07-15.6-15.2-13.87-16.84,2.95-2.8,16,11,22.42,4.45,5.31-5.39-4.72-17.68-9.33-24.95,17.58-.62,42.31-3.72,40.92,6.28,2-1.89,2.07-3.41-1-6.19,11.58.53,7,7.7,2.35,10.73-3.13,2.06,2.63,6.09,5.15,7,9.65,3.41,29.91,2.78,40.22-4.45,2.9-2-14.44-9.88-12-11.34,13.53-8.27,39-9.48,54.71-12.65-14.22,1.31-41.61,3.87-56.1,11.69-3.3,1.78,13.79,8.65,10.73,11.51-4.42,4.14-16.51,6.28-26.53,5.94s-18.36-3.74-14.13-6.72c22-15.58-20.51-14.09-45.19-12.82-8.49-4.71-11.73-28.19-6.11-29.93,6.92-2.14,17.9,9.34,24,1.05,5.36-7.29.95-21.74-8.81-24.34-4.35-1.16-9.11,3.7-13.35,5-5.7,1.7-9.13-2.62-12.39-6.55Zm278.57,1.48c-8.88,10.87-24.09,15.77-32,17.36,17.78-2.36,26.77-10.92,32.62-15.88C397.58,288.38,397.14,289.28,396.77,288.94Zm-39.18.7c4.4,2.08-6.46,13.91-4.71,14.14S365.14,291.7,357.59,289.64ZM347,291.56c-10.16,2.07-20.58,5-27.74,11-7.56,6.3,14,8.62,7.93,14.14-14.56,13.27-36.12,14-55.57,16.22,6.47,8.23,11.82,13.62,8.81,22.69-4.77,14.38-24.51,1.21-34.2,9.33-5.73,4.81-1.11,14.26,6.19,16.23-4.33-3.4-10.92-10.6-5.84-15,9-7.83,31.16,3.69,36.82-9.25,2.53-5.8-5.45-18.25-8.38-22.77,19.56-1.41,41.2-5.91,55.4-18.41,3.71-3.27-15.78-8.09-10.2-12.39,8.76-6.76,22.8-10.73,26.78-11.78ZM270.53,297c-1.13-.12-2.29,1-3.4,2.79A12.74,12.74,0,0,1,270.53,297ZM267,300c-6.88,8-6.93,24.79,2.18,31.24C260.59,322.68,263,306.69,267,300Zm117.52,20.77c-6.51,2.35-10.39,16.7-4.36,20.5C381.09,337.74,376.8,330.68,384.47,320.79Zm16.93,7.76a.73.73,0,0,0-.45.26c-1.77,2.12,3.8,9.34-1.31,19.37,7-3.92,3.93-19.76,1.76-19.63Zm22.16,2c-.46-.25-4.56,8.79-7,12.74C419.51,339.42,423.89,330.74,423.56,330.56Zm-27.49.35c-4.57,3.17-9,8.37-13.78,11.69C389.57,339.13,392.56,334.28,396.07,330.91Zm22.43,2.7c-7.17,6-14.34,14.24-22.25,19.37-1.93,5.12-8.73,15.85-5,18-1.41-2.73,2.65-12.48,5.68-17.62C403.72,347.5,413.69,338.86,418.5,333.61Zm-26.27,23.12c-9.59,7.84-17.32,11.26-32.54,17,11.11-3.73,20.26-6.48,32.11-16a6.67,6.67,0,0,1,.43-1Zm14.58.18c-.45-.07,2.37,4.13-9.78,14.57C405.93,365.55,409.79,357.4,406.81,356.91ZM364,360.49a4.54,4.54,0,0,0-1,.26c3.81-.37-4.81,8-6.37,11.6,3.79-3.2,11.52-12.68,7.33-11.86Zm39.43,0c-1.68.67-10.35,9.93-10.29,10.12s11.12-9.6,10.47-10.12c-.05,0-.07-.05-.18,0ZM359.52,362c-8.34,2.32-26.8,7.39-32.54,14-1.48,1.72,9.63,3.67,7.5,5.77C323,393,296.65,396.68,285.88,397c-3.3,6.07-6.46,14.94,2.27,16.5-6.11-3.32-2.53-10.33-1-15,7.47-1.49,39-4.54,49.73-17.19,2.51-3-10-2.6-8.64-4.71,3.26-5.21,20.6-10.86,31.33-14.57Zm-79.66,13.61c12.74,11.25,9.28,16.67,7.42,20.06,2.69-1.33,2.72-1.32,5-2.62,1.48-7.36-6.25-15-12.39-17.44Zm-5.06.35c-7.23.52-12.07,6.2-22,7.41,11.34.36,15.6-5.68,23.38-7.41A10.9,10.9,0,0,0,274.8,375.93Zm114.73,2.26c-1.23,0-8.89,8.65-12.82,15.62,5.46-8.41,13.19-14.78,13-15.44,0-.08-.09-.18-.18-.18Zm-110,20.6c-16.08,1.45-36.31,4.51-47.9,8.29-2.49.81,12.09,5.31,9.69,6.37-7.59,3.34-21.15,4.26-31.58,2.27,9.13,1.91,27.11,2.81,33.59-1.75,2.09-1.48-13.08-6.09-10.47-6.8,10.42-2.87,31.63-6.11,46.67-8.38Zm75.91,5.84c-.23-.25-9,6.71-8.73,7.24S356,405.24,355.42,404.63ZM315,407.07c-.55,0-1.15,0-1.83.09,4.95,1.6,5.59,5.33-2.27,10.47-3.18,2.08-14.7.74-20.41,4.54-4.06,2.7-3.6,8.68-1.75,7.94,1.28-.51-.5-4.4,2.79-7.07,6.76-5.47,15.34-1.84,22.25-5.85,4.73-2.74,9.57-10.2,1.22-10.12Zm-108.09.09c4.42,1.79-4.44,5.51-1.57,7.33C205.44,413.1,215.49,410.09,206.93,407.16Zm102.77,0c-.81-.14-5,1.59-9.16,3.67-2.49,1.24-5.88,2.9-7.85,3.05-2.19.17-3.14.18-3.23.44,1.38.91,9-1.5,13.78-3.84,4.63-2.23,6.54-2.83,6.64-3.14,0-.1-.06-.16-.18-.18Zm38.74.44c-8.31,2.19-17.62,6.72-24.34,10.2-1.76.91,4.67.06,3.83,1.4-3.33,5.38-36.27,11.19-36.12,12.3.08.59,3.87,1,4.18,1.92.48,1.47-4.5,2.23-7.24,2.79,3.8.25,10.51-2.66,8.47-3.14a5.3,5.3,0,0,1-3.4-1.92c-.59-1,29.2-5.74,36.29-12.12.92-.82-4.55-1.07-3.93-1.66C328.49,415.22,347.1,408.25,348.44,407.6Zm-143,7c0,.06-.05.14,0,.18.6.18,1.29.28,1.92.44a19,19,0,0,1-1.92-.62Zm-5.32,6.73c2.78,1.68,6.86,5.73,4.62,6.45-5.35,1.72-14.9-3-19.1-3.05-2.18-.05,3.4,4,6,5.06-1.49-.74-6.28-4.44-5.06-4.37,4.41.26,14.66,4.69,20,3,3.28-1.05-2.16-5-6.46-7.06Zm67.61,12.91c-10.64,1.22-20.2,2.46-16.83,3.23C250.49,436.61,258.72,435.34,267.73,434.21Zm-59.5.43c9.68,1.14,20.41,2.37,20.6,2.18C228.63,436.52,217.77,435.6,208.23,434.64Zm25.65,2.88c-.86.1-1.52.85-1.39.87.49.12,2.71-.44,2.26-.69a1.33,1.33,0,0,0-.87-.18Zm24.7.18c2.06,1.07-1.33,1.63-6.72,1.92C257.14,439.41,262.14,439,258.58,437.7Z" fill="#fff" stroke="#fff" stroke-miterlimit="60.3" stroke-width="2.13"/></svg>