<svg id="Layer_1" data-name="Layer 1" xmlns="http://www.w3.org/2000/svg" viewBox="0 0 500 500"><title>youtube</title><path d="M50,347.07v0c.24,8.89.32,17.83,1.81,26.66,1.59,9.34,3.86,18.45,8.19,26.93a85.81,85.81,0,0,0,24.06,29.09,78.34,78.34,0,0,0,24.06,13.05c12.86,4.14,26.12,5.73,39.57,5.81,8.39.05,16.78.26,25.18.23,61-.26,122,.44,182.94-.38a144.14,144.14,0,0,0,24-2.55A81.36,81.36,0,0,0,420,426.38c13.42-12,22.47-26.61,26.55-44.28,2.68-11.55,3.34-23.27,3.46-35v-2.35c0-.9-.35-199.82-.38-202.45a123.09,123.09,0,0,0-2-21.5c-1.65-8.66-4-17.1-8.12-24.93a86.37,86.37,0,0,0-16.66-22.22,82.5,82.5,0,0,0-36.35-20.74c-12.6-3.36-25.47-4.11-38.43-4.1a.48.48,0,0,1-.07-.2H151.91a.68.68,0,0,1,0,.2c-7.35.13-14.71.08-22,1a104.66,104.66,0,0,0-23.54,5.29,85.33,85.33,0,0,0-52.09,57c-3.35,12.51-4.08,25.27-4.1,38.12" fill="#fff"/><path d="M50,48.7H450v400H50Z" fill="none"/><path d="M257.08,359l-65.57-1.2c-21.24-.42-42.52.42-63.34-3.91-31.67-6.47-33.91-38.19-36.26-64.8A455,455,0,0,1,96,176.51c3.45-20.81,17-33.23,38-34.58,70.8-4.9,142.07-4.32,212.7-2A151.36,151.36,0,0,1,369,142.56c36.31,6.36,37.2,42.31,39.55,72.57a411,411,0,0,1-3.13,91.66c-3.6,25.14-10.48,46.22-39.55,48.26-36.41,2.66-72,4.8-108.51,4.12C257.4,359,257.19,359,257.08,359Zm-38.55-63.65c27.44-15.76,54.36-31.25,81.65-46.9-27.5-15.76-54.36-31.25-81.65-46.9Z" fill="red"/></svg>