<svg id="Capa_1" data-name="Capa 1" xmlns="http://www.w3.org/2000/svg" viewBox="0 0 500 500"><title>back-01</title><path d="M419.77,414l-8.93-15C342.16,283.63,248.16,290.71,225.15,294.44v90.95L75,235,225.15,86v89.53h2.3c83.44,0,122,35.09,123.61,36.63,91.87,76.44,72.25,183.69,72.05,184.77ZM245,279.9c38.66,0,109.85,12.82,166.61,95.63.86-32.48-6-100.63-69.4-153.41-.66-.59-39.56-35.76-123.54-33.17l-6.87.2V118l-118,117L211.82,353.16V283.74l5.07-1.26C217.25,282.39,228,279.9,245,279.9Z" stroke="#fff" stroke-miterlimit="10" stroke-width="4"/></svg>