<svg id="Layer_1" data-name="Layer 1" xmlns="http://www.w3.org/2000/svg" viewBox="0 0 500 500"><g id="Lager_80" data-name="Lager 80"><path id="Path_89" data-name="Path 89" d="M324.59,306.66v46.88a9.38,9.38,0,0,1-9.38,9.37H146.46a9.39,9.39,0,0,1-9.37-9.37V184.79a9.38,9.38,0,0,1,9.37-9.38h46.88a18.74,18.74,0,0,0,18.75-18.75h0a18.77,18.77,0,0,0-18.75-18.75H127.71A28.12,28.12,0,0,0,99.59,166V372.29a28.12,28.12,0,0,0,28.12,28.12H334a28.12,28.12,0,0,0,28.13-28.11h0V306.66a18.77,18.77,0,0,0-18.75-18.75h0a18.74,18.74,0,0,0-18.79,18.71Z" fill="#231f20" stroke="#fff" stroke-miterlimit="10" stroke-width="20"/><path id="Rectangle_40" data-name="Rectangle 40" d="M268.34,100.41h112.5a18.77,18.77,0,0,1,18.75,18.75h0a18.74,18.74,0,0,1-18.75,18.75H268.34a18.74,18.74,0,0,1-18.75-18.73v0h0a18.74,18.74,0,0,1,18.75-18.75Z" fill="#231f20" stroke="#fff" stroke-miterlimit="10" stroke-width="20"/><path id="Rectangle_41" data-name="Rectangle 41" d="M399.59,119.16v112.5a18.74,18.74,0,0,1-18.75,18.75h0a18.74,18.74,0,0,1-18.75-18.73V119.16a18.74,18.74,0,0,1,18.75-18.75h0A18.77,18.77,0,0,1,399.59,119.16Z" fill="#231f20" stroke="#fff" stroke-miterlimit="10" stroke-width="20"/><g id="Group_37" data-name="Group 37"><path id="Rectangle_42" data-name="Rectangle 42" d="M180.05,293.63,367.81,105.86a18.62,18.62,0,0,1,26.33,0h0a18.61,18.61,0,0,1,0,26.32h0L206.37,320A18.62,18.62,0,0,1,180,320l0,0h0a18.62,18.62,0,0,1,0-26.33Z" fill="#231f20" stroke="#fff" stroke-miterlimit="10" stroke-width="20"/></g></g></svg>